<svg width="128" height="128" viewBox="0 0 128 128" fill="none" xmlns="http://www.w3.org/2000/svg">
<rect width="128" height="128" fill="#0A0A0A"/>
<rect x="10.2621" y="22.5483" width="107.476" height="83.1241" rx="6.95172" fill="#171717"/>
<rect x="10.2621" y="22.5483" width="107.476" height="83.1241" rx="6.95172" stroke="#262626" stroke-width="0.22069"/>
<path d="M16.0521 29.118V29.0174H17.461V29.118H16.0521ZM15.8508 29.3193V29.2186H17.6623V29.3193H15.8508ZM15.8508 29.5205V29.4199H16.2534V29.5205H15.8508ZM17.461 29.5205V29.4199H17.8635V29.5205H17.461ZM17.461 29.7218V29.6212H17.8635V29.7218H17.461ZM15.6496 29.7218V29.6212H16.0521V29.7218H15.6496ZM15.6496 29.9231V29.8224H16.0521V29.9231H15.6496ZM15.8508 30.1243V30.0237H16.2534V30.1243H15.8508ZM15.8508 30.3256V30.225H17.0585V30.3256H15.8508ZM16.2534 30.5269V30.4262H17.6623V30.5269H16.2534ZM17.0585 30.7282V30.6275H17.8635V30.7282H17.0585ZM17.461 30.9294V30.8288H17.8635V30.9294H17.461ZM17.461 31.1307V31.0301H17.8635V31.1307H17.461ZM15.6496 31.1307V31.0301H16.0521V31.1307H15.6496ZM17.461 31.332V31.2313H17.8635V31.332H17.461ZM15.6496 31.332V31.2313H16.2534V31.332H15.6496ZM15.8508 31.5332V31.4326H17.6623V31.5332H15.8508ZM16.0521 31.7345V31.6339H17.461V31.7345H16.0521ZM18.8494 29.118V29.0174H20.057V29.118H18.8494ZM18.6482 29.3193V29.2186H20.2583V29.3193H18.6482ZM19.8558 29.5205V29.4199H20.4596V29.5205H19.8558ZM18.4469 29.5205V29.4199H19.0507V29.5205H18.4469ZM20.057 29.7218V29.6212H20.4596V29.7218H20.057ZM18.4469 29.7218V29.6212H18.8494V29.7218H18.4469ZM20.2583 29.9231V29.8224H20.6609V29.9231H20.2583ZM18.2456 29.9231V29.8224H18.6482V29.9231H18.2456ZM18.2456 30.1243V30.0237H18.6482V30.1243H18.2456ZM20.2583 30.1243V30.0237H20.6609V30.1243H20.2583ZM20.2583 30.3256V30.225H20.6609V30.3256H20.2583ZM18.2456 30.3256V30.225H18.6482V30.3256H18.2456ZM18.2456 30.5269V30.4262H18.6482V30.5269H18.2456ZM20.2583 30.5269V30.4262H20.6609V30.5269H20.2583ZM18.2456 30.7282V30.6275H18.6482V30.7282H18.2456ZM20.2583 30.7282V30.6275H20.6609V30.7282H20.2583ZM18.2456 30.9294V30.8288H18.6482V30.9294H18.2456ZM20.2583 30.9294V30.8288H20.6609V30.9294H20.2583ZM20.057 31.1307V31.0301H20.4596V31.1307H20.057ZM18.4469 31.1307V31.0301H18.8494V31.1307H18.4469ZM19.8558 31.332V31.2313H20.4596V31.332H19.8558ZM18.4469 31.332V31.2313H19.0507V31.332H18.4469ZM18.6482 31.5332V31.4326H20.2583V31.5332H18.6482ZM18.8494 31.7345V31.6339H20.057V31.7345H18.8494ZM21.2447 29.118V29.0174H21.6472V29.118H21.2447ZM22.8548 29.118V29.0174H23.2574V29.118H22.8548ZM21.2447 29.3193V29.2186H21.6472V29.3193H21.2447ZM22.8548 29.3193V29.2186H23.2574V29.3193H22.8548ZM21.2447 29.5205V29.4199H21.6472V29.5205H21.2447ZM22.8548 29.5205V29.4199H23.2574V29.5205H22.8548ZM22.8548 29.7218V29.6212H23.2574V29.7218H22.8548ZM21.2447 29.7218V29.6212H21.6472V29.7218H21.2447ZM22.8548 29.9231V29.8224H23.2574V29.9231H22.8548ZM21.2447 29.9231V29.8224H21.6472V29.9231H21.2447ZM21.2447 30.1243V30.0237H21.6472V30.1243H21.2447ZM22.8548 30.1243V30.0237H23.2574V30.1243H22.8548ZM21.2447 30.3256V30.225H21.6472V30.3256H21.2447ZM22.8548 30.3256V30.225H23.2574V30.3256H22.8548ZM22.8548 30.5269V30.4262H23.2574V30.5269H22.8548ZM21.2447 30.5269V30.4262H21.6472V30.5269H21.2447ZM21.2447 30.7282V30.6275H21.6472V30.7282H21.2447ZM22.8548 30.7282V30.6275H23.2574V30.7282H22.8548ZM21.2447 30.9294V30.8288H21.6472V30.9294H21.2447ZM22.8548 30.9294V30.8288H23.2574V30.9294H22.8548ZM22.8548 31.1307V31.0301H23.2574V31.1307H22.8548ZM21.2447 31.1307V31.0301H21.6472V31.1307H21.2447ZM22.6536 31.332V31.2313H23.2574V31.332H22.6536ZM21.2447 31.332V31.2313H21.8485V31.332H21.2447ZM22.8548 31.5332V31.4326H23.2574V31.5332H22.8548ZM21.4459 31.5332V31.4326H22.6536V31.5332H21.4459ZM21.6472 31.7345V31.6339H22.4523V31.7345H21.6472ZM22.8548 31.7345V31.6339H23.2574V31.7345H22.8548ZM24.0425 29.118V29.0174H24.445V29.118H24.0425ZM24.8475 29.118V29.0174H25.8539V29.118H24.8475ZM24.6463 29.3193V29.2186H26.0551V29.3193H24.6463ZM24.0425 29.3193V29.2186H24.445V29.3193H24.0425ZM25.6526 29.5205V29.4199H26.2564V29.5205H25.6526ZM24.0425 29.5205V29.4199H24.6463V29.5205H24.0425ZM24.0425 29.7218V29.6212H24.445V29.7218H24.0425ZM25.8539 29.7218V29.6212H26.2564V29.7218H25.8539ZM24.0425 29.9231V29.8224H24.445V29.9231H24.0425ZM25.8539 29.9231V29.8224H26.2564V29.9231H25.8539ZM25.8539 30.1243V30.0237H26.2564V30.1243H25.8539ZM24.0425 30.1243V30.0237H24.445V30.1243H24.0425ZM24.0425 30.3256V30.225H24.445V30.3256H24.0425ZM25.8539 30.3256V30.225H26.2564V30.3256H25.8539ZM24.0425 30.5269V30.4262H24.445V30.5269H24.0425ZM25.8539 30.5269V30.4262H26.2564V30.5269H25.8539ZM25.8539 30.7282V30.6275H26.2564V30.7282H25.8539ZM24.0425 30.7282V30.6275H24.445V30.7282H24.0425ZM24.0425 30.9294V30.8288H24.445V30.9294H24.0425ZM25.8539 30.9294V30.8288H26.2564V30.9294H25.8539ZM24.0425 31.1307V31.0301H24.445V31.1307H24.0425ZM25.8539 31.1307V31.0301H26.2564V31.1307H25.8539ZM25.8539 31.332V31.2313H26.2564V31.332H25.8539ZM24.0425 31.332V31.2313H24.445V31.332H24.0425ZM25.8539 31.5332V31.4326H26.2564V31.5332H25.8539ZM24.0425 31.5332V31.4326H24.445V31.5332H24.0425ZM24.0425 31.7345V31.6339H24.445V31.7345H24.0425ZM25.8539 31.7345V31.6339H26.2564V31.7345H25.8539ZM28.8534 28.1117V28.011H29.2559V28.1117H28.8534ZM28.8534 28.3129V28.2123H29.2559V28.3129H28.8534ZM28.8534 28.5142V28.4136H29.2559V28.5142H28.8534ZM28.8534 28.7155V28.6148H29.2559V28.7155H28.8534ZM28.8534 28.9167V28.8161H29.2559V28.9167H28.8534ZM28.8534 29.118V29.0174H29.2559V29.118H28.8534ZM27.4445 29.118V29.0174H28.4508V29.118H27.4445ZM27.2432 29.3193V29.2186H28.6521V29.3193H27.2432ZM28.8534 29.3193V29.2186H29.2559V29.3193H28.8534ZM27.042 29.5205V29.4199H27.6458V29.5205H27.042ZM28.6521 29.5205V29.4199H29.2559V29.5205H28.6521ZM27.042 29.7218V29.6212H27.4445V29.7218H27.042ZM28.6521 29.7218V29.6212H29.2559V29.7218H28.6521ZM26.8407 29.9231V29.8224H27.2432V29.9231H26.8407ZM28.8534 29.9231V29.8224H29.2559V29.9231H28.8534ZM28.8534 30.1243V30.0237H29.2559V30.1243H28.8534ZM26.8407 30.1243V30.0237H27.2432V30.1243H26.8407ZM26.8407 30.3256V30.225H27.2432V30.3256H26.8407ZM28.8534 30.3256V30.225H29.2559V30.3256H28.8534ZM26.8407 30.5269V30.4262H27.2432V30.5269H26.8407ZM28.8534 30.5269V30.4262H29.2559V30.5269H28.8534ZM26.8407 30.7282V30.6275H27.2432V30.7282H26.8407ZM28.8534 30.7282V30.6275H29.2559V30.7282H28.8534ZM26.8407 30.9294V30.8288H27.2432V30.9294H26.8407ZM28.8534 30.9294V30.8288H29.2559V30.9294H28.8534ZM28.6521 31.1307V31.0301H29.2559V31.1307H28.6521ZM27.042 31.1307V31.0301H27.4445V31.1307H27.042ZM27.042 31.332V31.2313H27.6458V31.332H27.042ZM28.6521 31.332V31.2313H29.2559V31.332H28.6521ZM27.2432 31.5332V31.4326H28.6521V31.5332H27.2432ZM28.8534 31.5332V31.4326H29.2559V31.5332H28.8534ZM28.8534 31.7345V31.6339H29.2559V31.7345H28.8534ZM27.4445 31.7345V31.6339H28.4508V31.7345H27.4445ZM29.8402 30.1243V30.0237H31.4503V30.1243H29.8402ZM29.8402 30.3256V30.225H31.4503V30.3256H29.8402ZM32.0323 28.1117V28.011H32.4349V28.1117H32.0323ZM32.0323 28.3129V28.2123H32.4349V28.3129H32.0323ZM32.0323 28.5142V28.4136H32.4349V28.5142H32.0323ZM32.0323 28.7155V28.6148H32.4349V28.7155H32.0323ZM32.0323 28.9167V28.8161H32.4349V28.9167H32.0323ZM32.0323 29.118V29.0174H32.4349V29.118H32.0323ZM32.8374 29.118V29.0174H33.8438V29.118H32.8374ZM32.6362 29.3193V29.2186H34.045V29.3193H32.6362ZM32.0323 29.3193V29.2186H32.4349V29.3193H32.0323ZM33.6425 29.5205V29.4199H34.2463V29.5205H33.6425ZM32.0323 29.5205V29.4199H32.6362V29.5205H32.0323ZM33.8438 29.7218V29.6212H34.2463V29.7218H33.8438ZM32.0323 29.7218V29.6212H32.6362V29.7218H32.0323ZM34.045 29.9231V29.8224H34.4476V29.9231H34.045ZM32.0323 29.9231V29.8224H32.4349V29.9231H32.0323ZM32.0323 30.1243V30.0237H32.4349V30.1243H32.0323ZM34.045 30.1243V30.0237H34.4476V30.1243H34.045ZM34.045 30.3256V30.225H34.4476V30.3256H34.045ZM32.0323 30.3256V30.225H32.4349V30.3256H32.0323ZM34.045 30.5269V30.4262H34.4476V30.5269H34.045ZM32.0323 30.5269V30.4262H32.4349V30.5269H32.0323ZM34.045 30.7282V30.6275H34.4476V30.7282H34.045ZM32.0323 30.7282V30.6275H32.4349V30.7282H32.0323ZM34.045 30.9294V30.8288H34.4476V30.9294H34.045ZM32.0323 30.9294V30.8288H32.4349V30.9294H32.0323ZM32.0323 31.1307V31.0301H32.6362V31.1307H32.0323ZM33.8438 31.1307V31.0301H34.2463V31.1307H33.8438ZM33.6425 31.332V31.2313H34.2463V31.332H33.6425ZM32.0323 31.332V31.2313H32.6362V31.332H32.0323ZM32.6362 31.5332V31.4326H34.045V31.5332H32.6362ZM32.0323 31.5332V31.4326H32.4349V31.5332H32.0323ZM32.0323 31.7345V31.6339H32.4349V31.7345H32.0323ZM32.8374 31.7345V31.6339H33.8438V31.7345H32.8374ZM35.4344 29.118V29.0174H36.642V29.118H35.4344ZM35.2331 29.3193V29.2186H36.8433V29.3193H35.2331ZM36.4407 29.5205V29.4199H37.0445V29.5205H36.4407ZM35.0318 29.5205V29.4199H35.6357V29.5205H35.0318ZM36.642 29.7218V29.6212H37.0445V29.7218H36.642ZM35.0318 29.7218V29.6212H35.4344V29.7218H35.0318ZM36.8433 29.9231V29.8224H37.2458V29.9231H36.8433ZM34.8306 29.9231V29.8224H35.2331V29.9231H34.8306ZM34.8306 30.1243V30.0237H35.2331V30.1243H34.8306ZM36.8433 30.1243V30.0237H37.2458V30.1243H36.8433ZM36.8433 30.3256V30.225H37.2458V30.3256H36.8433ZM34.8306 30.3256V30.225H35.2331V30.3256H34.8306ZM34.8306 30.5269V30.4262H35.2331V30.5269H34.8306ZM36.8433 30.5269V30.4262H37.2458V30.5269H36.8433ZM34.8306 30.7282V30.6275H35.2331V30.7282H34.8306ZM36.8433 30.7282V30.6275H37.2458V30.7282H36.8433ZM34.8306 30.9294V30.8288H35.2331V30.9294H34.8306ZM36.8433 30.9294V30.8288H37.2458V30.9294H36.8433ZM36.642 31.1307V31.0301H37.0445V31.1307H36.642ZM35.0318 31.1307V31.0301H35.4344V31.1307H35.0318ZM36.4407 31.332V31.2313H37.0445V31.332H36.4407ZM35.0318 31.332V31.2313H35.6357V31.332H35.0318ZM35.2331 31.5332V31.4326H36.8433V31.5332H35.2331ZM35.4344 31.7345V31.6339H36.642V31.7345H35.4344ZM39.0372 29.118V29.0174H39.641V29.118H39.0372ZM37.8296 29.118V29.0174H38.6347V29.118H37.8296ZM38.836 29.3193V29.2186H39.641V29.3193H38.836ZM37.8296 29.3193V29.2186H38.6347V29.3193H37.8296ZM38.2322 29.5205V29.4199H38.836V29.5205H38.2322ZM38.2322 29.7218V29.6212H38.6347V29.7218H38.2322ZM38.2322 29.9231V29.8224H38.6347V29.9231H38.2322ZM38.2322 30.1243V30.0237H38.6347V30.1243H38.2322ZM38.2322 30.3256V30.225H38.6347V30.3256H38.2322ZM38.2322 30.5269V30.4262H38.6347V30.5269H38.2322ZM38.2322 30.7282V30.6275H38.6347V30.7282H38.2322ZM38.2322 30.9294V30.8288H38.6347V30.9294H38.2322ZM38.2322 31.1307V31.0301H38.6347V31.1307H38.2322ZM38.2322 31.332V31.2313H38.6347V31.332H38.2322ZM37.8296 31.5332V31.4326H39.2385V31.5332H37.8296ZM37.8296 31.7345V31.6339H39.2385V31.7345H37.8296ZM40.4248 29.118V29.0174H41.6324V29.118H40.4248ZM40.2235 29.3193V29.2186H41.8337V29.3193H40.2235ZM40.0222 29.5205V29.4199H40.626V29.5205H40.0222ZM41.4311 29.5205V29.4199H42.0349V29.5205H41.4311ZM41.6324 29.7218V29.6212H42.0349V29.7218H41.6324ZM40.0222 29.7218V29.6212H40.4248V29.7218H40.0222ZM41.8337 29.9231V29.8224H42.2362V29.9231H41.8337ZM39.821 29.9231V29.8224H40.2235V29.9231H39.821ZM41.8337 30.1243V30.0237H42.2362V30.1243H41.8337ZM39.821 30.1243V30.0237H40.2235V30.1243H39.821ZM39.821 30.3256V30.225H42.2362V30.3256H39.821ZM39.821 30.5269V30.4262H42.2362V30.5269H39.821ZM39.821 30.7282V30.6275H40.2235V30.7282H39.821ZM39.821 30.9294V30.8288H40.2235V30.9294H39.821ZM41.8337 31.1307V31.0301H42.2362V31.1307H41.8337ZM40.0222 31.1307V31.0301H40.4248V31.1307H40.0222ZM40.0222 31.332V31.2313H40.626V31.332H40.0222ZM41.6324 31.332V31.2313H42.2362V31.332H41.6324ZM40.2235 31.5332V31.4326H42.0349V31.5332H40.2235ZM40.4248 31.7345V31.6339H41.6324V31.7345H40.4248ZM44.6314 28.1117V28.011H45.034V28.1117H44.6314ZM44.6314 28.3129V28.2123H45.034V28.3129H44.6314ZM44.6314 28.5142V28.4136H45.034V28.5142H44.6314ZM44.6314 28.7155V28.6148H45.034V28.7155H44.6314ZM44.6314 28.9167V28.8161H45.034V28.9167H44.6314ZM44.6314 29.118V29.0174H45.034V29.118H44.6314ZM43.2226 29.118V29.0174H44.2289V29.118H43.2226ZM43.0213 29.3193V29.2186H44.4302V29.3193H43.0213ZM44.6314 29.3193V29.2186H45.034V29.3193H44.6314ZM42.82 29.5205V29.4199H43.4238V29.5205H42.82ZM44.4302 29.5205V29.4199H45.034V29.5205H44.4302ZM42.82 29.7218V29.6212H43.2226V29.7218H42.82ZM44.4302 29.7218V29.6212H45.034V29.7218H44.4302ZM42.6187 29.9231V29.8224H43.0213V29.9231H42.6187ZM44.6314 29.9231V29.8224H45.034V29.9231H44.6314ZM44.6314 30.1243V30.0237H45.034V30.1243H44.6314ZM42.6187 30.1243V30.0237H43.0213V30.1243H42.6187ZM42.6187 30.3256V30.225H43.0213V30.3256H42.6187ZM44.6314 30.3256V30.225H45.034V30.3256H44.6314ZM42.6187 30.5269V30.4262H43.0213V30.5269H42.6187ZM44.6314 30.5269V30.4262H45.034V30.5269H44.6314ZM42.6187 30.7282V30.6275H43.0213V30.7282H42.6187ZM44.6314 30.7282V30.6275H45.034V30.7282H44.6314ZM42.6187 30.9294V30.8288H43.0213V30.9294H42.6187ZM44.6314 30.9294V30.8288H45.034V30.9294H44.6314ZM44.4302 31.1307V31.0301H45.034V31.1307H44.4302ZM42.82 31.1307V31.0301H43.2226V31.1307H42.82ZM42.82 31.332V31.2313H43.4238V31.332H42.82ZM44.4302 31.332V31.2313H45.034V31.332H44.4302ZM43.0213 31.5332V31.4326H44.4302V31.5332H43.0213ZM44.6314 31.5332V31.4326H45.034V31.5332H44.6314ZM44.6314 31.7345V31.6339H45.034V31.7345H44.6314ZM43.2226 31.7345V31.6339H44.2289V31.7345H43.2226Z" fill="white"/>
<g filter="url(#filter0_i_5_81)">
<rect x="15.4483" y="38.2517" width="47.2276" height="29.7931" rx="1.76552" fill="#CD401D"/>
<rect x="15.5586" y="38.3621" width="47.0069" height="29.5724" rx="1.65517" stroke="#CD401D" stroke-width="0.22069"/>
<path opacity="0.5" d="M17.717 40.2058V40.1555H18.2202V40.2058H17.717ZM17.5157 40.3064V40.2561H18.4214V40.3064H17.5157ZM18.2202 40.4071V40.3567H18.4214V40.4071H18.2202ZM17.5157 40.4071V40.3567H17.717V40.4071H17.5157ZM18.2202 40.5077V40.4574H18.5221V40.5077H18.2202ZM17.4151 40.5077V40.4574H17.6163V40.5077H17.4151ZM18.1195 40.6083V40.558H18.5221V40.6083H18.1195ZM17.4151 40.6083V40.558H17.6163V40.6083H17.4151ZM18.4214 40.709V40.6586H18.6227V40.709H18.4214ZM17.3144 40.709V40.6586H17.5157V40.709H17.3144ZM18.1195 40.709V40.6586H18.3208V40.709H18.1195ZM18.4214 40.8096V40.7593H18.6227V40.8096H18.4214ZM18.0189 40.8096V40.7593H18.2202V40.8096H18.0189ZM17.3144 40.8096V40.7593H17.5157V40.8096H17.3144ZM17.3144 40.9102V40.8599H17.5157V40.9102H17.3144ZM18.4214 40.9102V40.8599H18.6227V40.9102H18.4214ZM18.0189 40.9102V40.8599H18.2202V40.9102H18.0189ZM17.9182 41.0109V40.9605H18.1195V41.0109H17.9182ZM17.3144 41.0109V40.9605H17.5157V41.0109H17.3144ZM18.4214 41.0109V40.9605H18.6227V41.0109H18.4214ZM17.9182 41.1115V41.0612H18.1195V41.1115H17.9182ZM17.3144 41.1115V41.0612H17.5157V41.1115H17.3144ZM18.4214 41.1115V41.0612H18.6227V41.1115H18.4214ZM18.4214 41.2121V41.1618H18.6227V41.2121H18.4214ZM17.8176 41.2121V41.1618H18.0189V41.2121H17.8176ZM17.3144 41.2121V41.1618H17.5157V41.2121H17.3144ZM17.8176 41.3128V41.2625H18.0189V41.3128H17.8176ZM18.4214 41.3128V41.2625H18.6227V41.3128H18.4214ZM17.3144 41.3128V41.2625H17.5157V41.3128H17.3144ZM17.717 41.4134V41.3631H17.9182V41.4134H17.717ZM17.3144 41.4134V41.3631H17.5157V41.4134H17.3144ZM18.4214 41.4134V41.3631H18.6227V41.4134H18.4214ZM17.717 41.514V41.4637H17.9182V41.514H17.717ZM17.3144 41.514V41.4637H17.5157V41.514H17.3144ZM18.4214 41.514V41.4637H18.6227V41.514H18.4214ZM17.4151 41.6147V41.5644H17.8176V41.6147H17.4151ZM18.3208 41.6147V41.5644H18.5221V41.6147H18.3208ZM17.4151 41.7153V41.665H17.8176V41.7153H17.4151ZM18.3208 41.7153V41.665H18.5221V41.7153H18.3208ZM17.5157 41.8159V41.7656H17.717V41.8159H17.5157ZM18.2202 41.8159V41.7656H18.4214V41.8159H18.2202ZM17.5157 41.9166V41.8663H18.4214V41.9166H17.5157ZM17.717 42.0172V41.9669H18.2202V42.0172H17.717ZM19.3174 40.2058V40.1555H19.5186V40.2058H19.3174ZM19.3174 40.3064V40.2561H19.5186V40.3064H19.3174ZM19.3174 40.4071V40.3567H19.5186V40.4071H19.3174ZM18.9148 40.5077V40.4574H19.5186V40.5077H18.9148ZM18.9148 40.6083V40.558H19.5186V40.6083H18.9148ZM19.3174 40.709V40.6586H19.5186V40.709H19.3174ZM19.3174 40.8096V40.7593H19.5186V40.8096H19.3174ZM19.3174 40.9102V40.8599H19.5186V40.9102H19.3174ZM19.3174 41.0109V40.9605H19.5186V41.0109H19.3174ZM19.3174 41.1115V41.0612H19.5186V41.1115H19.3174ZM19.3174 41.2121V41.1618H19.5186V41.2121H19.3174ZM19.3174 41.3128V41.2625H19.5186V41.3128H19.3174ZM19.3174 41.4134V41.3631H19.5186V41.4134H19.3174ZM19.3174 41.514V41.4637H19.5186V41.514H19.3174ZM19.3174 41.6147V41.5644H19.5186V41.6147H19.3174ZM19.3174 41.7153V41.665H19.5186V41.7153H19.3174ZM19.3174 41.8159V41.7656H19.5186V41.8159H19.3174ZM18.9148 41.9166V41.8663H19.8205V41.9166H18.9148ZM18.9148 42.0172V41.9669H19.8205V42.0172H18.9148Z" fill="black"/>
<path d="M17.717 64.3228V64.2725H18.2202V64.3228H17.717ZM18.4214 64.3228V64.2725H18.6227V64.3228H18.4214ZM17.6163 64.4234V64.3731H18.3208V64.4234H17.6163ZM18.4214 64.4234V64.3731H18.6227V64.4234H18.4214ZM17.5157 64.5241V64.4737H17.8176V64.5241H17.5157ZM18.3208 64.5241V64.4737H18.6227V64.5241H18.3208ZM18.3208 64.6247V64.5744H18.6227V64.6247H18.3208ZM17.4151 64.6247V64.5744H17.717V64.6247H17.4151ZM17.4151 64.7253V64.675H17.6163V64.7253H17.4151ZM18.4214 64.7253V64.675H18.6227V64.7253H18.4214ZM17.4151 64.826V64.7756H17.6163V64.826H17.4151ZM18.4214 64.826V64.7756H18.6227V64.826H18.4214ZM17.4151 64.9266V64.8763H17.6163V64.9266H17.4151ZM18.4214 64.9266V64.8763H18.6227V64.9266H18.4214ZM18.4214 65.0272V64.9769H18.6227V65.0272H18.4214ZM17.4151 65.0272V64.9769H17.6163V65.0272H17.4151ZM17.4151 65.1279V65.0776H17.6163V65.1279H17.4151ZM18.4214 65.1279V65.0776H18.6227V65.1279H18.4214ZM18.3208 65.2285V65.1782H18.6227V65.2285H18.3208ZM17.4151 65.2285V65.1782H17.717V65.2285H17.4151ZM17.5157 65.3291V65.2788H17.8176V65.3291H17.5157ZM18.3208 65.3291V65.2788H18.6227V65.3291H18.3208ZM18.4214 65.4298V65.3795H18.6227V65.4298H18.4214ZM17.6163 65.4298V65.3795H18.3208V65.4298H17.6163ZM17.717 65.5304V65.4801H18.2202V65.5304H17.717ZM18.4214 65.5304V65.4801H18.6227V65.5304H18.4214ZM18.4214 65.631V65.5807H18.6227V65.631H18.4214ZM17.4151 65.7317V65.6814H17.6163V65.7317H17.4151ZM18.4214 65.7317V65.6814H18.6227V65.7317H18.4214ZM17.4151 65.8323V65.782H17.717V65.8323H17.4151ZM18.3208 65.8323V65.782H18.6227V65.8323H18.3208ZM17.5157 65.9329V65.8826H18.5221V65.9329H17.5157ZM17.717 66.0336V65.9833H18.3208V66.0336H17.717ZM19.0157 64.3228V64.2725H19.217V64.3228H19.0157ZM19.8208 64.3228V64.2725H20.022V64.3228H19.8208ZM19.0157 64.4234V64.3731H19.217V64.4234H19.0157ZM19.8208 64.4234V64.3731H20.022V64.4234H19.8208ZM19.0157 64.5241V64.4737H19.217V64.5241H19.0157ZM19.8208 64.5241V64.4737H20.022V64.5241H19.8208ZM19.8208 64.6247V64.5744H20.022V64.6247H19.8208ZM19.0157 64.6247V64.5744H19.217V64.6247H19.0157ZM19.8208 64.7253V64.675H20.022V64.7253H19.8208ZM19.0157 64.7253V64.675H19.217V64.7253H19.0157ZM19.0157 64.826V64.7756H19.217V64.826H19.0157ZM19.8208 64.826V64.7756H20.022V64.826H19.8208ZM19.0157 64.9266V64.8763H19.217V64.9266H19.0157ZM19.8208 64.9266V64.8763H20.022V64.9266H19.8208ZM19.8208 65.0272V64.9769H20.022V65.0272H19.8208ZM19.0157 65.0272V64.9769H19.217V65.0272H19.0157ZM19.0157 65.1279V65.0776H19.217V65.1279H19.0157ZM19.8208 65.1279V65.0776H20.022V65.1279H19.8208ZM19.0157 65.2285V65.1782H19.217V65.2285H19.0157ZM19.8208 65.2285V65.1782H20.022V65.2285H19.8208ZM19.8208 65.3291V65.2788H20.022V65.3291H19.8208ZM19.0157 65.3291V65.2788H19.217V65.3291H19.0157ZM19.7201 65.4298V65.3795H20.022V65.4298H19.7201ZM19.0157 65.4298V65.3795H19.3176V65.4298H19.0157ZM19.8208 65.5304V65.4801H20.022V65.5304H19.8208ZM19.1163 65.5304V65.4801H19.7201V65.5304H19.1163ZM19.217 65.631V65.5807H19.6195V65.631H19.217ZM19.8208 65.631V65.5807H20.022V65.631H19.8208ZM21.3203 64.3228V64.2725H21.5216V64.3228H21.3203ZM20.3139 64.3228V64.2725H20.5152V64.3228H20.3139ZM20.3139 64.4234V64.3731H20.5152V64.4234H20.3139ZM21.3203 64.4234V64.3731H21.5216V64.4234H21.3203ZM20.3139 64.5241V64.4737H20.5152V64.5241H20.3139ZM21.3203 64.5241V64.4737H21.5216V64.5241H21.3203ZM21.2197 64.6247V64.5744H21.4209V64.6247H21.2197ZM20.4146 64.6247V64.5744H20.6158V64.6247H20.4146ZM21.2197 64.7253V64.675H21.4209V64.7253H21.2197ZM20.4146 64.7253V64.675H20.6158V64.7253H20.4146ZM20.4146 64.826V64.7756H20.6158V64.826H20.4146ZM21.2197 64.826V64.7756H21.4209V64.826H21.2197ZM20.5152 64.9266V64.8763H20.7165V64.9266H20.5152ZM21.119 64.9266V64.8763H21.3203V64.9266H21.119ZM20.5152 65.0272V64.9769H20.7165V65.0272H20.5152ZM21.119 65.0272V64.9769H21.3203V65.0272H21.119ZM20.5152 65.1279V65.0776H20.7165V65.1279H20.5152ZM21.119 65.1279V65.0776H21.3203V65.1279H21.119ZM21.0184 65.2285V65.1782H21.2197V65.2285H21.0184ZM20.6158 65.2285V65.1782H20.8171V65.2285H20.6158ZM20.6158 65.3291V65.2788H20.8171V65.3291H20.6158ZM21.0184 65.3291V65.2788H21.2197V65.3291H21.0184ZM20.6158 65.4298V65.3795H20.8171V65.4298H20.6158ZM21.0184 65.4298V65.3795H21.2197V65.4298H21.0184ZM20.7165 65.5304V65.4801H21.119V65.5304H20.7165ZM20.7165 65.631V65.5807H21.119V65.631H20.7165ZM20.8171 65.7317V65.6814H21.0184V65.7317H20.8171ZM20.8171 65.8323V65.782H21.0184V65.8323H20.8171ZM20.4146 65.9329V65.8826H20.9178V65.9329H20.4146ZM20.4146 66.0336V65.9833H20.8171V66.0336H20.4146ZM21.9141 64.3228V64.2725H22.6185V64.3228H21.9141ZM21.8135 64.4234V64.3731H22.7192V64.4234H21.8135ZM21.8135 64.5241V64.4737H22.0147V64.5241H21.8135ZM22.6185 64.5241V64.4737H22.8198V64.5241H22.6185ZM22.6185 64.6247V64.5744H22.8198V64.6247H22.6185ZM21.7128 64.6247V64.5744H21.9141V64.6247H21.7128ZM21.7128 64.7253V64.675H21.9141V64.7253H21.7128ZM21.8135 64.826V64.7756H22.0147V64.826H21.8135ZM21.8135 64.9266V64.8763H22.4173V64.9266H21.8135ZM22.0147 65.0272V64.9769H22.7192V65.0272H22.0147ZM22.4173 65.1279V65.0776H22.8198V65.1279H22.4173ZM22.6185 65.2285V65.1782H22.8198V65.2285H22.6185ZM22.6185 65.3291V65.2788H22.8198V65.3291H22.6185ZM21.7128 65.3291V65.2788H21.9141V65.3291H21.7128ZM22.6185 65.4298V65.3795H22.8198V65.4298H22.6185ZM21.7128 65.4298V65.3795H22.0147V65.4298H21.7128ZM21.8135 65.5304V65.4801H22.7192V65.5304H21.8135ZM21.9141 65.631V65.5807H22.6185V65.631H21.9141ZM23.2121 64.3228V64.2725H23.9166V64.3228H23.2121ZM23.1115 64.4234V64.3731H24.0172V64.4234H23.1115ZM23.1115 64.5241V64.4737H23.3128V64.5241H23.1115ZM23.9166 64.5241V64.4737H24.1178V64.5241H23.9166ZM23.9166 64.6247V64.5744H24.1178V64.6247H23.9166ZM23.0109 64.6247V64.5744H23.2121V64.6247H23.0109ZM23.0109 64.7253V64.675H23.2121V64.7253H23.0109ZM23.1115 64.826V64.7756H23.3128V64.826H23.1115ZM23.1115 64.9266V64.8763H23.7153V64.9266H23.1115ZM23.3128 65.0272V64.9769H24.0172V65.0272H23.3128ZM23.7153 65.1279V65.0776H24.1178V65.1279H23.7153ZM23.9166 65.2285V65.1782H24.1178V65.2285H23.9166ZM23.9166 65.3291V65.2788H24.1178V65.3291H23.9166ZM23.0109 65.3291V65.2788H23.2121V65.3291H23.0109ZM23.9166 65.4298V65.3795H24.1178V65.4298H23.9166ZM23.0109 65.4298V65.3795H23.3128V65.4298H23.0109ZM23.1115 65.5304V65.4801H24.0172V65.5304H23.1115ZM23.2121 65.631V65.5807H23.9166V65.631H23.2121ZM24.3089 65.4298V65.3795H24.6108V65.4298H24.3089ZM24.3089 65.5304V65.4801H24.6108V65.5304H24.3089ZM24.3089 65.631V65.5807H24.6108V65.631H24.3089ZM25.3058 64.3228V64.2725H25.6077V64.3228H25.3058ZM25.9096 64.3228V64.2725H26.3121V64.3228H25.9096ZM24.9032 64.3228V64.2725H25.1045V64.3228H24.9032ZM25.809 64.4234V64.3731H26.4128V64.4234H25.809ZM25.2051 64.4234V64.3731H25.7083V64.4234H25.2051ZM24.9032 64.4234V64.3731H25.1045V64.4234H24.9032ZM25.507 64.5241V64.4737H25.809V64.5241H25.507ZM26.2115 64.5241V64.4737H26.5134V64.5241H26.2115ZM24.9032 64.5241V64.4737H25.2051V64.5241H24.9032ZM25.6077 64.6247V64.5744H25.809V64.6247H25.6077ZM26.3121 64.6247V64.5744H26.5134V64.6247H26.3121ZM24.9032 64.6247V64.5744H25.1045V64.6247H24.9032ZM25.6077 64.7253V64.675H25.809V64.7253H25.6077ZM24.9032 64.7253V64.675H25.1045V64.7253H24.9032ZM26.3121 64.7253V64.675H26.5134V64.7253H26.3121ZM26.3121 64.826V64.7756H26.5134V64.826H26.3121ZM25.6077 64.826V64.7756H25.809V64.826H25.6077ZM24.9032 64.826V64.7756H25.1045V64.826H24.9032ZM24.9032 64.9266V64.8763H25.1045V64.9266H24.9032ZM26.3121 64.9266V64.8763H26.5134V64.9266H26.3121ZM25.6077 64.9266V64.8763H25.809V64.9266H25.6077ZM24.9032 65.0272V64.9769H25.1045V65.0272H24.9032ZM25.6077 65.0272V64.9769H25.809V65.0272H25.6077ZM26.3121 65.0272V64.9769H26.5134V65.0272H26.3121ZM24.9032 65.1279V65.0776H25.1045V65.1279H24.9032ZM25.6077 65.1279V65.0776H25.809V65.1279H25.6077ZM26.3121 65.1279V65.0776H26.5134V65.1279H26.3121ZM26.3121 65.2285V65.1782H26.5134V65.2285H26.3121ZM25.6077 65.2285V65.1782H25.809V65.2285H25.6077ZM24.9032 65.2285V65.1782H25.1045V65.2285H24.9032ZM24.9032 65.3291V65.2788H25.1045V65.3291H24.9032ZM25.6077 65.3291V65.2788H25.809V65.3291H25.6077ZM26.3121 65.3291V65.2788H26.5134V65.3291H26.3121ZM24.9032 65.4298V65.3795H25.1045V65.4298H24.9032ZM26.3121 65.4298V65.3795H26.5134V65.4298H26.3121ZM25.6077 65.4298V65.3795H25.809V65.4298H25.6077ZM26.3121 65.5304V65.4801H26.5134V65.5304H26.3121ZM25.6077 65.5304V65.4801H25.809V65.5304H25.6077ZM24.9032 65.5304V65.4801H25.1045V65.5304H24.9032ZM26.3121 65.631V65.5807H26.5134V65.631H26.3121ZM25.6077 65.631V65.5807H25.809V65.631H25.6077ZM24.9032 65.631V65.5807H25.1045V65.631H24.9032ZM27.3073 64.3228V64.2725H27.8104V64.3228H27.3073ZM26.9047 64.3228V64.2725H27.106V64.3228H26.9047ZM27.2066 64.4234V64.3731H27.9111V64.4234H27.2066ZM26.9047 64.4234V64.3731H27.106V64.4234H26.9047ZM26.9047 64.5241V64.4737H27.2066V64.5241H26.9047ZM27.7098 64.5241V64.4737H28.0117V64.5241H27.7098ZM27.8104 64.6247V64.5744H28.1123V64.6247H27.8104ZM26.9047 64.6247V64.5744H27.2066V64.6247H26.9047ZM27.9111 64.7253V64.675H28.1123V64.7253H27.9111ZM26.9047 64.7253V64.675H27.106V64.7253H26.9047ZM27.9111 64.826V64.7756H28.1123V64.826H27.9111ZM26.9047 64.826V64.7756H27.106V64.826H26.9047ZM27.9111 64.9266V64.8763H28.1123V64.9266H27.9111ZM26.9047 64.9266V64.8763H27.106V64.9266H26.9047ZM27.9111 65.0272V64.9769H28.1123V65.0272H27.9111ZM26.9047 65.0272V64.9769H27.106V65.0272H26.9047ZM27.9111 65.1279V65.0776H28.1123V65.1279H27.9111ZM26.9047 65.1279V65.0776H27.106V65.1279H26.9047ZM27.9111 65.2285V65.1782H28.1123V65.2285H27.9111ZM26.9047 65.2285V65.1782H27.106V65.2285H26.9047ZM26.9047 65.3291V65.2788H27.2066V65.3291H26.9047ZM27.8104 65.3291V65.2788H28.1123V65.3291H27.8104ZM27.7098 65.4298V65.3795H28.0117V65.4298H27.7098ZM26.9047 65.4298V65.3795H27.2066V65.4298H26.9047ZM27.2066 65.5304V65.4801H27.9111V65.5304H27.2066ZM26.9047 65.5304V65.4801H27.106V65.5304H26.9047ZM27.3073 65.631V65.5807H27.8104V65.631H27.3073ZM26.9047 65.631V65.5807H27.106V65.631H26.9047ZM26.9047 65.7317V65.6814H27.106V65.7317H26.9047ZM26.9047 65.8323V65.782H27.106V65.8323H26.9047ZM26.9047 65.9329V65.8826H27.106V65.9329H26.9047ZM26.9047 66.0336V65.9833H27.106V66.0336H26.9047ZM28.7064 63.8196V63.7693H29.3102V63.8196H28.7064ZM28.5051 63.9203V63.8699H29.4108V63.9203H28.5051ZM29.2095 64.0209V63.9706H29.5114V64.0209H29.2095ZM28.5051 64.0209V63.9706H28.7064V64.0209H28.5051ZM29.3102 64.1215V64.0712H29.5114V64.1215H29.3102ZM28.4045 64.1215V64.0712H28.6057V64.1215H28.4045ZM28.4045 64.2222V64.1718H28.6057V64.2222H28.4045ZM29.3102 64.2222V64.1718H29.5114V64.2222H29.3102ZM29.3102 64.3228V64.2725H29.5114V64.3228H29.3102ZM29.3102 64.4234V64.3731H29.5114V64.4234H29.3102ZM29.2095 64.5241V64.4737H29.4108V64.5241H29.2095ZM28.807 64.6247V64.5744H29.2095V64.6247H28.807ZM28.807 64.7253V64.675H29.4108V64.7253H28.807ZM29.2095 64.826V64.7756H29.5114V64.826H29.2095ZM29.3102 64.9266V64.8763H29.5114V64.9266H29.3102ZM29.4108 65.0272V64.9769H29.6121V65.0272H29.4108ZM29.4108 65.1279V65.0776H29.6121V65.1279H29.4108ZM29.4108 65.2285V65.1782H29.6121V65.2285H29.4108ZM28.4045 65.2285V65.1782H28.6057V65.2285H28.4045ZM29.4108 65.3291V65.2788H29.6121V65.3291H29.4108ZM28.4045 65.3291V65.2788H28.6057V65.3291H28.4045ZM29.3102 65.4298V65.3795H29.5114V65.4298H29.3102ZM28.4045 65.4298V65.3795H28.7064V65.4298H28.4045ZM28.5051 65.5304V65.4801H29.5114V65.5304H28.5051ZM28.6057 65.631V65.5807H29.3102V65.631H28.6057Z" fill="black"/>
</g>
<g filter="url(#filter1_i_5_81)">
<rect x="65.3242" y="38.2517" width="47.2276" height="29.7931" rx="1.76552" fill="#CD401D"/>
<rect x="65.4345" y="38.3621" width="47.0069" height="29.5724" rx="1.65517" stroke="#CD401D" stroke-width="0.22069"/>
<path opacity="0.5" d="M67.5928 40.2058V40.1555H68.096V40.2058H67.5928ZM67.3916 40.3064V40.2561H68.2973V40.3064H67.3916ZM68.096 40.4071V40.3567H68.2973V40.4071H68.096ZM67.3916 40.4071V40.3567H67.5928V40.4071H67.3916ZM68.096 40.5077V40.4574H68.3979V40.5077H68.096ZM67.2909 40.5077V40.4574H67.4922V40.5077H67.2909ZM67.9954 40.6083V40.558H68.3979V40.6083H67.9954ZM67.2909 40.6083V40.558H67.4922V40.6083H67.2909ZM68.2973 40.709V40.6586H68.4985V40.709H68.2973ZM67.1903 40.709V40.6586H67.3916V40.709H67.1903ZM67.9954 40.709V40.6586H68.1966V40.709H67.9954ZM68.2973 40.8096V40.7593H68.4985V40.8096H68.2973ZM67.8947 40.8096V40.7593H68.096V40.8096H67.8947ZM67.1903 40.8096V40.7593H67.3916V40.8096H67.1903ZM67.1903 40.9102V40.8599H67.3916V40.9102H67.1903ZM68.2973 40.9102V40.8599H68.4985V40.9102H68.2973ZM67.8947 40.9102V40.8599H68.096V40.9102H67.8947ZM67.7941 41.0109V40.9605H67.9954V41.0109H67.7941ZM67.1903 41.0109V40.9605H67.3916V41.0109H67.1903ZM68.2973 41.0109V40.9605H68.4985V41.0109H68.2973ZM67.7941 41.1115V41.0612H67.9954V41.1115H67.7941ZM67.1903 41.1115V41.0612H67.3916V41.1115H67.1903ZM68.2973 41.1115V41.0612H68.4985V41.1115H68.2973ZM68.2973 41.2121V41.1618H68.4985V41.2121H68.2973ZM67.6935 41.2121V41.1618H67.8947V41.2121H67.6935ZM67.1903 41.2121V41.1618H67.3916V41.2121H67.1903ZM67.6935 41.3128V41.2625H67.8947V41.3128H67.6935ZM68.2973 41.3128V41.2625H68.4985V41.3128H68.2973ZM67.1903 41.3128V41.2625H67.3916V41.3128H67.1903ZM67.5928 41.4134V41.3631H67.7941V41.4134H67.5928ZM67.1903 41.4134V41.3631H67.3916V41.4134H67.1903ZM68.2973 41.4134V41.3631H68.4985V41.4134H68.2973ZM67.5928 41.514V41.4637H67.7941V41.514H67.5928ZM67.1903 41.514V41.4637H67.3916V41.514H67.1903ZM68.2973 41.514V41.4637H68.4985V41.514H68.2973ZM67.2909 41.6147V41.5644H67.6935V41.6147H67.2909ZM68.1966 41.6147V41.5644H68.3979V41.6147H68.1966ZM67.2909 41.7153V41.665H67.6935V41.7153H67.2909ZM68.1966 41.7153V41.665H68.3979V41.7153H68.1966ZM67.3916 41.8159V41.7656H67.5928V41.8159H67.3916ZM68.096 41.8159V41.7656H68.2973V41.8159H68.096ZM67.3916 41.9166V41.8663H68.2973V41.9166H67.3916ZM67.5928 42.0172V41.9669H68.096V42.0172H67.5928ZM69.1932 40.2058V40.1555H69.3945V40.2058H69.1932ZM69.1932 40.3064V40.2561H69.3945V40.3064H69.1932ZM69.1932 40.4071V40.3567H69.3945V40.4071H69.1932ZM68.7907 40.5077V40.4574H69.3945V40.5077H68.7907ZM68.7907 40.6083V40.558H69.3945V40.6083H68.7907ZM69.1932 40.709V40.6586H69.3945V40.709H69.1932ZM69.1932 40.8096V40.7593H69.3945V40.8096H69.1932ZM69.1932 40.9102V40.8599H69.3945V40.9102H69.1932ZM69.1932 41.0109V40.9605H69.3945V41.0109H69.1932ZM69.1932 41.1115V41.0612H69.3945V41.1115H69.1932ZM69.1932 41.2121V41.1618H69.3945V41.2121H69.1932ZM69.1932 41.3128V41.2625H69.3945V41.3128H69.1932ZM69.1932 41.4134V41.3631H69.3945V41.4134H69.1932ZM69.1932 41.514V41.4637H69.3945V41.514H69.1932ZM69.1932 41.6147V41.5644H69.3945V41.6147H69.1932ZM69.1932 41.7153V41.665H69.3945V41.7153H69.1932ZM69.1932 41.8159V41.7656H69.3945V41.8159H69.1932ZM68.7907 41.9166V41.8663H69.6964V41.9166H68.7907ZM68.7907 42.0172V41.9669H69.6964V42.0172H68.7907Z" fill="black"/>
<path d="M67.5928 64.3228V64.2725H68.096V64.3228H67.5928ZM68.2973 64.3228V64.2725H68.4985V64.3228H68.2973ZM67.4922 64.4234V64.3731H68.1966V64.4234H67.4922ZM68.2973 64.4234V64.3731H68.4985V64.4234H68.2973ZM67.3916 64.5241V64.4737H67.6935V64.5241H67.3916ZM68.1966 64.5241V64.4737H68.4985V64.5241H68.1966ZM68.1966 64.6247V64.5744H68.4985V64.6247H68.1966ZM67.2909 64.6247V64.5744H67.5928V64.6247H67.2909ZM67.2909 64.7253V64.675H67.4922V64.7253H67.2909ZM68.2973 64.7253V64.675H68.4985V64.7253H68.2973ZM67.2909 64.826V64.7756H67.4922V64.826H67.2909ZM68.2973 64.826V64.7756H68.4985V64.826H68.2973ZM67.2909 64.9266V64.8763H67.4922V64.9266H67.2909ZM68.2973 64.9266V64.8763H68.4985V64.9266H68.2973ZM68.2973 65.0272V64.9769H68.4985V65.0272H68.2973ZM67.2909 65.0272V64.9769H67.4922V65.0272H67.2909ZM67.2909 65.1279V65.0776H67.4922V65.1279H67.2909ZM68.2973 65.1279V65.0776H68.4985V65.1279H68.2973ZM68.1966 65.2285V65.1782H68.4985V65.2285H68.1966ZM67.2909 65.2285V65.1782H67.5928V65.2285H67.2909ZM67.3916 65.3291V65.2788H67.6935V65.3291H67.3916ZM68.1966 65.3291V65.2788H68.4985V65.3291H68.1966ZM68.2973 65.4298V65.3795H68.4985V65.4298H68.2973ZM67.4922 65.4298V65.3795H68.1966V65.4298H67.4922ZM67.5928 65.5304V65.4801H68.096V65.5304H67.5928ZM68.2973 65.5304V65.4801H68.4985V65.5304H68.2973ZM68.2973 65.631V65.5807H68.4985V65.631H68.2973ZM67.2909 65.7317V65.6814H67.4922V65.7317H67.2909ZM68.2973 65.7317V65.6814H68.4985V65.7317H68.2973ZM67.2909 65.8323V65.782H67.5928V65.8323H67.2909ZM68.1966 65.8323V65.782H68.4985V65.8323H68.1966ZM67.3916 65.9329V65.8826H68.3979V65.9329H67.3916ZM67.5928 66.0336V65.9833H68.1966V66.0336H67.5928ZM68.8915 64.3228V64.2725H69.0928V64.3228H68.8915ZM69.6966 64.3228V64.2725H69.8979V64.3228H69.6966ZM68.8915 64.4234V64.3731H69.0928V64.4234H68.8915ZM69.6966 64.4234V64.3731H69.8979V64.4234H69.6966ZM68.8915 64.5241V64.4737H69.0928V64.5241H68.8915ZM69.6966 64.5241V64.4737H69.8979V64.5241H69.6966ZM69.6966 64.6247V64.5744H69.8979V64.6247H69.6966ZM68.8915 64.6247V64.5744H69.0928V64.6247H68.8915ZM69.6966 64.7253V64.675H69.8979V64.7253H69.6966ZM68.8915 64.7253V64.675H69.0928V64.7253H68.8915ZM68.8915 64.826V64.7756H69.0928V64.826H68.8915ZM69.6966 64.826V64.7756H69.8979V64.826H69.6966ZM68.8915 64.9266V64.8763H69.0928V64.9266H68.8915ZM69.6966 64.9266V64.8763H69.8979V64.9266H69.6966ZM69.6966 65.0272V64.9769H69.8979V65.0272H69.6966ZM68.8915 65.0272V64.9769H69.0928V65.0272H68.8915ZM68.8915 65.1279V65.0776H69.0928V65.1279H68.8915ZM69.6966 65.1279V65.0776H69.8979V65.1279H69.6966ZM68.8915 65.2285V65.1782H69.0928V65.2285H68.8915ZM69.6966 65.2285V65.1782H69.8979V65.2285H69.6966ZM69.6966 65.3291V65.2788H69.8979V65.3291H69.6966ZM68.8915 65.3291V65.2788H69.0928V65.3291H68.8915ZM69.596 65.4298V65.3795H69.8979V65.4298H69.596ZM68.8915 65.4298V65.3795H69.1934V65.4298H68.8915ZM69.6966 65.5304V65.4801H69.8979V65.5304H69.6966ZM68.9922 65.5304V65.4801H69.596V65.5304H68.9922ZM69.0928 65.631V65.5807H69.4954V65.631H69.0928ZM69.6966 65.631V65.5807H69.8979V65.631H69.6966ZM71.1961 64.3228V64.2725H71.3974V64.3228H71.1961ZM70.1898 64.3228V64.2725H70.3911V64.3228H70.1898ZM70.1898 64.4234V64.3731H70.3911V64.4234H70.1898ZM71.1961 64.4234V64.3731H71.3974V64.4234H71.1961ZM70.1898 64.5241V64.4737H70.3911V64.5241H70.1898ZM71.1961 64.5241V64.4737H71.3974V64.5241H71.1961ZM71.0955 64.6247V64.5744H71.2968V64.6247H71.0955ZM70.2904 64.6247V64.5744H70.4917V64.6247H70.2904ZM71.0955 64.7253V64.675H71.2968V64.7253H71.0955ZM70.2904 64.7253V64.675H70.4917V64.7253H70.2904ZM70.2904 64.826V64.7756H70.4917V64.826H70.2904ZM71.0955 64.826V64.7756H71.2968V64.826H71.0955ZM70.3911 64.9266V64.8763H70.5923V64.9266H70.3911ZM70.9949 64.9266V64.8763H71.1961V64.9266H70.9949ZM70.3911 65.0272V64.9769H70.5923V65.0272H70.3911ZM70.9949 65.0272V64.9769H71.1961V65.0272H70.9949ZM70.3911 65.1279V65.0776H70.5923V65.1279H70.3911ZM70.9949 65.1279V65.0776H71.1961V65.1279H70.9949ZM70.8942 65.2285V65.1782H71.0955V65.2285H70.8942ZM70.4917 65.2285V65.1782H70.693V65.2285H70.4917ZM70.4917 65.3291V65.2788H70.693V65.3291H70.4917ZM70.8942 65.3291V65.2788H71.0955V65.3291H70.8942ZM70.4917 65.4298V65.3795H70.693V65.4298H70.4917ZM70.8942 65.4298V65.3795H71.0955V65.4298H70.8942ZM70.5923 65.5304V65.4801H70.9949V65.5304H70.5923ZM70.5923 65.631V65.5807H70.9949V65.631H70.5923ZM70.693 65.7317V65.6814H70.8942V65.7317H70.693ZM70.693 65.8323V65.782H70.8942V65.8323H70.693ZM70.2904 65.9329V65.8826H70.7936V65.9329H70.2904ZM70.2904 66.0336V65.9833H70.693V66.0336H70.2904ZM71.79 64.3228V64.2725H72.4944V64.3228H71.79ZM71.6893 64.4234V64.3731H72.595V64.4234H71.6893ZM71.6893 64.5241V64.4737H71.8906V64.5241H71.6893ZM72.4944 64.5241V64.4737H72.6957V64.5241H72.4944ZM72.4944 64.6247V64.5744H72.6957V64.6247H72.4944ZM71.5887 64.6247V64.5744H71.79V64.6247H71.5887ZM71.5887 64.7253V64.675H71.79V64.7253H71.5887ZM71.6893 64.826V64.7756H71.8906V64.826H71.6893ZM71.6893 64.9266V64.8763H72.2931V64.9266H71.6893ZM71.8906 65.0272V64.9769H72.595V65.0272H71.8906ZM72.2931 65.1279V65.0776H72.6957V65.1279H72.2931ZM72.4944 65.2285V65.1782H72.6957V65.2285H72.4944ZM72.4944 65.3291V65.2788H72.6957V65.3291H72.4944ZM71.5887 65.3291V65.2788H71.79V65.3291H71.5887ZM72.4944 65.4298V65.3795H72.6957V65.4298H72.4944ZM71.5887 65.4298V65.3795H71.8906V65.4298H71.5887ZM71.6893 65.5304V65.4801H72.595V65.5304H71.6893ZM71.79 65.631V65.5807H72.4944V65.631H71.79ZM73.088 64.3228V64.2725H73.7924V64.3228H73.088ZM72.9874 64.4234V64.3731H73.8931V64.4234H72.9874ZM72.9874 64.5241V64.4737H73.1886V64.5241H72.9874ZM73.7924 64.5241V64.4737H73.9937V64.5241H73.7924ZM73.7924 64.6247V64.5744H73.9937V64.6247H73.7924ZM72.8867 64.6247V64.5744H73.088V64.6247H72.8867ZM72.8867 64.7253V64.675H73.088V64.7253H72.8867ZM72.9874 64.826V64.7756H73.1886V64.826H72.9874ZM72.9874 64.9266V64.8763H73.5912V64.9266H72.9874ZM73.1886 65.0272V64.9769H73.8931V65.0272H73.1886ZM73.5912 65.1279V65.0776H73.9937V65.1279H73.5912ZM73.7924 65.2285V65.1782H73.9937V65.2285H73.7924ZM73.7924 65.3291V65.2788H73.9937V65.3291H73.7924ZM72.8867 65.3291V65.2788H73.088V65.3291H72.8867ZM73.7924 65.4298V65.3795H73.9937V65.4298H73.7924ZM72.8867 65.4298V65.3795H73.1886V65.4298H72.8867ZM72.9874 65.5304V65.4801H73.8931V65.5304H72.9874ZM73.088 65.631V65.5807H73.7924V65.631H73.088ZM74.1847 65.4298V65.3795H74.4866V65.4298H74.1847ZM74.1847 65.5304V65.4801H74.4866V65.5304H74.1847ZM74.1847 65.631V65.5807H74.4866V65.631H74.1847ZM75.1816 64.3228V64.2725H75.4835V64.3228H75.1816ZM75.7854 64.3228V64.2725H76.188V64.3228H75.7854ZM74.7791 64.3228V64.2725H74.9804V64.3228H74.7791ZM75.6848 64.4234V64.3731H76.2886V64.4234H75.6848ZM75.081 64.4234V64.3731H75.5842V64.4234H75.081ZM74.7791 64.4234V64.3731H74.9804V64.4234H74.7791ZM75.3829 64.5241V64.4737H75.6848V64.5241H75.3829ZM76.0873 64.5241V64.4737H76.3892V64.5241H76.0873ZM74.7791 64.5241V64.4737H75.081V64.5241H74.7791ZM75.4835 64.6247V64.5744H75.6848V64.6247H75.4835ZM76.188 64.6247V64.5744H76.3892V64.6247H76.188ZM74.7791 64.6247V64.5744H74.9804V64.6247H74.7791ZM75.4835 64.7253V64.675H75.6848V64.7253H75.4835ZM74.7791 64.7253V64.675H74.9804V64.7253H74.7791ZM76.188 64.7253V64.675H76.3892V64.7253H76.188ZM76.188 64.826V64.7756H76.3892V64.826H76.188ZM75.4835 64.826V64.7756H75.6848V64.826H75.4835ZM74.7791 64.826V64.7756H74.9804V64.826H74.7791ZM74.7791 64.9266V64.8763H74.9804V64.9266H74.7791ZM76.188 64.9266V64.8763H76.3892V64.9266H76.188ZM75.4835 64.9266V64.8763H75.6848V64.9266H75.4835ZM74.7791 65.0272V64.9769H74.9804V65.0272H74.7791ZM75.4835 65.0272V64.9769H75.6848V65.0272H75.4835ZM76.188 65.0272V64.9769H76.3892V65.0272H76.188ZM74.7791 65.1279V65.0776H74.9804V65.1279H74.7791ZM75.4835 65.1279V65.0776H75.6848V65.1279H75.4835ZM76.188 65.1279V65.0776H76.3892V65.1279H76.188ZM76.188 65.2285V65.1782H76.3892V65.2285H76.188ZM75.4835 65.2285V65.1782H75.6848V65.2285H75.4835ZM74.7791 65.2285V65.1782H74.9804V65.2285H74.7791ZM74.7791 65.3291V65.2788H74.9804V65.3291H74.7791ZM75.4835 65.3291V65.2788H75.6848V65.3291H75.4835ZM76.188 65.3291V65.2788H76.3892V65.3291H76.188ZM74.7791 65.4298V65.3795H74.9804V65.4298H74.7791ZM76.188 65.4298V65.3795H76.3892V65.4298H76.188ZM75.4835 65.4298V65.3795H75.6848V65.4298H75.4835ZM76.188 65.5304V65.4801H76.3892V65.5304H76.188ZM75.4835 65.5304V65.4801H75.6848V65.5304H75.4835ZM74.7791 65.5304V65.4801H74.9804V65.5304H74.7791ZM76.188 65.631V65.5807H76.3892V65.631H76.188ZM75.4835 65.631V65.5807H75.6848V65.631H75.4835ZM74.7791 65.631V65.5807H74.9804V65.631H74.7791ZM77.1831 64.3228V64.2725H77.6863V64.3228H77.1831ZM76.7806 64.3228V64.2725H76.9818V64.3228H76.7806ZM77.0825 64.4234V64.3731H77.7869V64.4234H77.0825ZM76.7806 64.4234V64.3731H76.9818V64.4234H76.7806ZM76.7806 64.5241V64.4737H77.0825V64.5241H76.7806ZM77.5856 64.5241V64.4737H77.8876V64.5241H77.5856ZM77.6863 64.6247V64.5744H77.9882V64.6247H77.6863ZM76.7806 64.6247V64.5744H77.0825V64.6247H76.7806ZM77.7869 64.7253V64.675H77.9882V64.7253H77.7869ZM76.7806 64.7253V64.675H76.9818V64.7253H76.7806ZM77.7869 64.826V64.7756H77.9882V64.826H77.7869ZM76.7806 64.826V64.7756H76.9818V64.826H76.7806ZM77.7869 64.9266V64.8763H77.9882V64.9266H77.7869ZM76.7806 64.9266V64.8763H76.9818V64.9266H76.7806ZM77.7869 65.0272V64.9769H77.9882V65.0272H77.7869ZM76.7806 65.0272V64.9769H76.9818V65.0272H76.7806ZM77.7869 65.1279V65.0776H77.9882V65.1279H77.7869ZM76.7806 65.1279V65.0776H76.9818V65.1279H76.7806ZM77.7869 65.2285V65.1782H77.9882V65.2285H77.7869ZM76.7806 65.2285V65.1782H76.9818V65.2285H76.7806ZM76.7806 65.3291V65.2788H77.0825V65.3291H76.7806ZM77.6863 65.3291V65.2788H77.9882V65.3291H77.6863ZM77.5856 65.4298V65.3795H77.8876V65.4298H77.5856ZM76.7806 65.4298V65.3795H77.0825V65.4298H76.7806ZM77.0825 65.5304V65.4801H77.7869V65.5304H77.0825ZM76.7806 65.5304V65.4801H76.9818V65.5304H76.7806ZM77.1831 65.631V65.5807H77.6863V65.631H77.1831ZM76.7806 65.631V65.5807H76.9818V65.631H76.7806ZM76.7806 65.7317V65.6814H76.9818V65.7317H76.7806ZM76.7806 65.8323V65.782H76.9818V65.8323H76.7806ZM76.7806 65.9329V65.8826H76.9818V65.9329H76.7806ZM76.7806 66.0336V65.9833H76.9818V66.0336H76.7806ZM78.5822 63.8196V63.7693H79.186V63.8196H78.5822ZM78.381 63.9203V63.8699H79.2867V63.9203H78.381ZM79.0854 64.0209V63.9706H79.3873V64.0209H79.0854ZM78.381 64.0209V63.9706H78.5822V64.0209H78.381ZM79.186 64.1215V64.0712H79.3873V64.1215H79.186ZM78.2803 64.1215V64.0712H78.4816V64.1215H78.2803ZM78.2803 64.2222V64.1718H78.4816V64.2222H78.2803ZM79.186 64.2222V64.1718H79.3873V64.2222H79.186ZM79.186 64.3228V64.2725H79.3873V64.3228H79.186ZM79.186 64.4234V64.3731H79.3873V64.4234H79.186ZM79.0854 64.5241V64.4737H79.2867V64.5241H79.0854ZM78.6829 64.6247V64.5744H79.0854V64.6247H78.6829ZM78.6829 64.7253V64.675H79.2867V64.7253H78.6829ZM79.0854 64.826V64.7756H79.3873V64.826H79.0854ZM79.186 64.9266V64.8763H79.3873V64.9266H79.186ZM79.2867 65.0272V64.9769H79.4879V65.0272H79.2867ZM79.2867 65.1279V65.0776H79.4879V65.1279H79.2867ZM79.2867 65.2285V65.1782H79.4879V65.2285H79.2867ZM78.2803 65.2285V65.1782H78.4816V65.2285H78.2803ZM79.2867 65.3291V65.2788H79.4879V65.3291H79.2867ZM78.2803 65.3291V65.2788H78.4816V65.3291H78.2803ZM79.186 65.4298V65.3795H79.3873V65.4298H79.186ZM78.2803 65.4298V65.3795H78.5822V65.4298H78.2803ZM78.381 65.5304V65.4801H79.3873V65.5304H78.381ZM78.4816 65.631V65.5807H79.186V65.631H78.4816Z" fill="black"/>
</g>
<g filter="url(#filter2_i_5_81)">
<rect x="15.4483" y="70.6931" width="47.2276" height="29.7931" rx="1.76552" fill="#F8F2E4"/>
<rect x="15.5586" y="70.8035" width="47.0069" height="29.5724" rx="1.65517" stroke="#F8F2E4" stroke-width="0.22069"/>
<path opacity="0.5" d="M17.717 72.6472V72.5969H18.2202V72.6472H17.717ZM17.5157 72.7478V72.6975H18.4214V72.7478H17.5157ZM18.2202 72.8485V72.7981H18.4214V72.8485H18.2202ZM17.5157 72.8485V72.7981H17.717V72.8485H17.5157ZM18.2202 72.9491V72.8988H18.5221V72.9491H18.2202ZM17.4151 72.9491V72.8988H17.6163V72.9491H17.4151ZM18.1195 73.0497V72.9994H18.5221V73.0497H18.1195ZM17.4151 73.0497V72.9994H17.6163V73.0497H17.4151ZM18.4214 73.1504V73.1001H18.6227V73.1504H18.4214ZM17.3144 73.1504V73.1001H17.5157V73.1504H17.3144ZM18.1195 73.1504V73.1001H18.3208V73.1504H18.1195ZM18.4214 73.251V73.2007H18.6227V73.251H18.4214ZM18.0189 73.251V73.2007H18.2202V73.251H18.0189ZM17.3144 73.251V73.2007H17.5157V73.251H17.3144ZM17.3144 73.3516V73.3013H17.5157V73.3516H17.3144ZM18.4214 73.3516V73.3013H18.6227V73.3516H18.4214ZM18.0189 73.3516V73.3013H18.2202V73.3516H18.0189ZM17.9182 73.4523V73.402H18.1195V73.4523H17.9182ZM17.3144 73.4523V73.402H17.5157V73.4523H17.3144ZM18.4214 73.4523V73.402H18.6227V73.4523H18.4214ZM17.9182 73.5529V73.5026H18.1195V73.5529H17.9182ZM17.3144 73.5529V73.5026H17.5157V73.5529H17.3144ZM18.4214 73.5529V73.5026H18.6227V73.5529H18.4214ZM18.4214 73.6535V73.6032H18.6227V73.6535H18.4214ZM17.8176 73.6535V73.6032H18.0189V73.6535H17.8176ZM17.3144 73.6535V73.6032H17.5157V73.6535H17.3144ZM17.8176 73.7542V73.7039H18.0189V73.7542H17.8176ZM18.4214 73.7542V73.7039H18.6227V73.7542H18.4214ZM17.3144 73.7542V73.7039H17.5157V73.7542H17.3144ZM17.717 73.8548V73.8045H17.9182V73.8548H17.717ZM17.3144 73.8548V73.8045H17.5157V73.8548H17.3144ZM18.4214 73.8548V73.8045H18.6227V73.8548H18.4214ZM17.717 73.9554V73.9051H17.9182V73.9554H17.717ZM17.3144 73.9554V73.9051H17.5157V73.9554H17.3144ZM18.4214 73.9554V73.9051H18.6227V73.9554H18.4214ZM17.4151 74.0561V74.0058H17.8176V74.0561H17.4151ZM18.3208 74.0561V74.0058H18.5221V74.0561H18.3208ZM17.4151 74.1567V74.1064H17.8176V74.1567H17.4151ZM18.3208 74.1567V74.1064H18.5221V74.1567H18.3208ZM17.5157 74.2573V74.207H17.717V74.2573H17.5157ZM18.2202 74.2573V74.207H18.4214V74.2573H18.2202ZM17.5157 74.358V74.3077H18.4214V74.358H17.5157ZM17.717 74.4586V74.4083H18.2202V74.4586H17.717ZM19.3174 72.6472V72.5969H19.5186V72.6472H19.3174ZM19.3174 72.7478V72.6975H19.5186V72.7478H19.3174ZM19.3174 72.8485V72.7981H19.5186V72.8485H19.3174ZM18.9148 72.9491V72.8988H19.5186V72.9491H18.9148ZM18.9148 73.0497V72.9994H19.5186V73.0497H18.9148ZM19.3174 73.1504V73.1001H19.5186V73.1504H19.3174ZM19.3174 73.251V73.2007H19.5186V73.251H19.3174ZM19.3174 73.3516V73.3013H19.5186V73.3516H19.3174ZM19.3174 73.4523V73.402H19.5186V73.4523H19.3174ZM19.3174 73.5529V73.5026H19.5186V73.5529H19.3174ZM19.3174 73.6535V73.6032H19.5186V73.6535H19.3174ZM19.3174 73.7542V73.7039H19.5186V73.7542H19.3174ZM19.3174 73.8548V73.8045H19.5186V73.8548H19.3174ZM19.3174 73.9554V73.9051H19.5186V73.9554H19.3174ZM19.3174 74.0561V74.0058H19.5186V74.0561H19.3174ZM19.3174 74.1567V74.1064H19.5186V74.1567H19.3174ZM19.3174 74.2573V74.207H19.5186V74.2573H19.3174ZM18.9148 74.358V74.3077H19.8205V74.358H18.9148ZM18.9148 74.4586V74.4083H19.8205V74.4586H18.9148Z" fill="black"/>
<path d="M17.717 96.7642V96.7139H18.2202V96.7642H17.717ZM18.4214 96.7642V96.7139H18.6227V96.7642H18.4214ZM17.6163 96.8648V96.8145H18.3208V96.8648H17.6163ZM18.4214 96.8648V96.8145H18.6227V96.8648H18.4214ZM17.5157 96.9655V96.9152H17.8176V96.9655H17.5157ZM18.3208 96.9655V96.9152H18.6227V96.9655H18.3208ZM18.3208 97.0661V97.0158H18.6227V97.0661H18.3208ZM17.4151 97.0661V97.0158H17.717V97.0661H17.4151ZM17.4151 97.1667V97.1164H17.6163V97.1667H17.4151ZM18.4214 97.1667V97.1164H18.6227V97.1667H18.4214ZM17.4151 97.2674V97.2171H17.6163V97.2674H17.4151ZM18.4214 97.2674V97.2171H18.6227V97.2674H18.4214ZM17.4151 97.368V97.3177H17.6163V97.368H17.4151ZM18.4214 97.368V97.3177H18.6227V97.368H18.4214ZM18.4214 97.4686V97.4183H18.6227V97.4686H18.4214ZM17.4151 97.4686V97.4183H17.6163V97.4686H17.4151ZM17.4151 97.5693V97.519H17.6163V97.5693H17.4151ZM18.4214 97.5693V97.519H18.6227V97.5693H18.4214ZM18.3208 97.6699V97.6196H18.6227V97.6699H18.3208ZM17.4151 97.6699V97.6196H17.717V97.6699H17.4151ZM17.5157 97.7705V97.7202H17.8176V97.7705H17.5157ZM18.3208 97.7705V97.7202H18.6227V97.7705H18.3208ZM18.4214 97.8712V97.8209H18.6227V97.8712H18.4214ZM17.6163 97.8712V97.8209H18.3208V97.8712H17.6163ZM17.717 97.9718V97.9215H18.2202V97.9718H17.717ZM18.4214 97.9718V97.9215H18.6227V97.9718H18.4214ZM18.4214 98.0724V98.0221H18.6227V98.0724H18.4214ZM17.4151 98.1731V98.1228H17.6163V98.1731H17.4151ZM18.4214 98.1731V98.1228H18.6227V98.1731H18.4214ZM17.4151 98.2737V98.2234H17.717V98.2737H17.4151ZM18.3208 98.2737V98.2234H18.6227V98.2737H18.3208ZM17.5157 98.3744V98.324H18.5221V98.3744H17.5157ZM17.717 98.475V98.4247H18.3208V98.475H17.717ZM19.0157 96.7642V96.7139H19.217V96.7642H19.0157ZM19.8208 96.7642V96.7139H20.022V96.7642H19.8208ZM19.0157 96.8648V96.8145H19.217V96.8648H19.0157ZM19.8208 96.8648V96.8145H20.022V96.8648H19.8208ZM19.0157 96.9655V96.9152H19.217V96.9655H19.0157ZM19.8208 96.9655V96.9152H20.022V96.9655H19.8208ZM19.8208 97.0661V97.0158H20.022V97.0661H19.8208ZM19.0157 97.0661V97.0158H19.217V97.0661H19.0157ZM19.8208 97.1667V97.1164H20.022V97.1667H19.8208ZM19.0157 97.1667V97.1164H19.217V97.1667H19.0157ZM19.0157 97.2674V97.2171H19.217V97.2674H19.0157ZM19.8208 97.2674V97.2171H20.022V97.2674H19.8208ZM19.0157 97.368V97.3177H19.217V97.368H19.0157ZM19.8208 97.368V97.3177H20.022V97.368H19.8208ZM19.8208 97.4686V97.4183H20.022V97.4686H19.8208ZM19.0157 97.4686V97.4183H19.217V97.4686H19.0157ZM19.0157 97.5693V97.519H19.217V97.5693H19.0157ZM19.8208 97.5693V97.519H20.022V97.5693H19.8208ZM19.0157 97.6699V97.6196H19.217V97.6699H19.0157ZM19.8208 97.6699V97.6196H20.022V97.6699H19.8208ZM19.8208 97.7705V97.7202H20.022V97.7705H19.8208ZM19.0157 97.7705V97.7202H19.217V97.7705H19.0157ZM19.7201 97.8712V97.8209H20.022V97.8712H19.7201ZM19.0157 97.8712V97.8209H19.3176V97.8712H19.0157ZM19.8208 97.9718V97.9215H20.022V97.9718H19.8208ZM19.1163 97.9718V97.9215H19.7201V97.9718H19.1163ZM19.217 98.0724V98.0221H19.6195V98.0724H19.217ZM19.8208 98.0724V98.0221H20.022V98.0724H19.8208ZM21.3203 96.7642V96.7139H21.5216V96.7642H21.3203ZM20.3139 96.7642V96.7139H20.5152V96.7642H20.3139ZM20.3139 96.8648V96.8145H20.5152V96.8648H20.3139ZM21.3203 96.8648V96.8145H21.5216V96.8648H21.3203ZM20.3139 96.9655V96.9152H20.5152V96.9655H20.3139ZM21.3203 96.9655V96.9152H21.5216V96.9655H21.3203ZM21.2197 97.0661V97.0158H21.4209V97.0661H21.2197ZM20.4146 97.0661V97.0158H20.6158V97.0661H20.4146ZM21.2197 97.1667V97.1164H21.4209V97.1667H21.2197ZM20.4146 97.1667V97.1164H20.6158V97.1667H20.4146ZM20.4146 97.2674V97.2171H20.6158V97.2674H20.4146ZM21.2197 97.2674V97.2171H21.4209V97.2674H21.2197ZM20.5152 97.368V97.3177H20.7165V97.368H20.5152ZM21.119 97.368V97.3177H21.3203V97.368H21.119ZM20.5152 97.4686V97.4183H20.7165V97.4686H20.5152ZM21.119 97.4686V97.4183H21.3203V97.4686H21.119ZM20.5152 97.5693V97.519H20.7165V97.5693H20.5152ZM21.119 97.5693V97.519H21.3203V97.5693H21.119ZM21.0184 97.6699V97.6196H21.2197V97.6699H21.0184ZM20.6158 97.6699V97.6196H20.8171V97.6699H20.6158ZM20.6158 97.7705V97.7202H20.8171V97.7705H20.6158ZM21.0184 97.7705V97.7202H21.2197V97.7705H21.0184ZM20.6158 97.8712V97.8209H20.8171V97.8712H20.6158ZM21.0184 97.8712V97.8209H21.2197V97.8712H21.0184ZM20.7165 97.9718V97.9215H21.119V97.9718H20.7165ZM20.7165 98.0724V98.0221H21.119V98.0724H20.7165ZM20.8171 98.1731V98.1228H21.0184V98.1731H20.8171ZM20.8171 98.2737V98.2234H21.0184V98.2737H20.8171ZM20.4146 98.3744V98.324H20.9178V98.3744H20.4146ZM20.4146 98.475V98.4247H20.8171V98.475H20.4146ZM21.9141 96.7642V96.7139H22.6185V96.7642H21.9141ZM21.8135 96.8648V96.8145H22.7192V96.8648H21.8135ZM21.8135 96.9655V96.9152H22.0147V96.9655H21.8135ZM22.6185 96.9655V96.9152H22.8198V96.9655H22.6185ZM22.6185 97.0661V97.0158H22.8198V97.0661H22.6185ZM21.7128 97.0661V97.0158H21.9141V97.0661H21.7128ZM21.7128 97.1667V97.1164H21.9141V97.1667H21.7128ZM21.8135 97.2674V97.2171H22.0147V97.2674H21.8135ZM21.8135 97.368V97.3177H22.4173V97.368H21.8135ZM22.0147 97.4686V97.4183H22.7192V97.4686H22.0147ZM22.4173 97.5693V97.519H22.8198V97.5693H22.4173ZM22.6185 97.6699V97.6196H22.8198V97.6699H22.6185ZM22.6185 97.7705V97.7202H22.8198V97.7705H22.6185ZM21.7128 97.7705V97.7202H21.9141V97.7705H21.7128ZM22.6185 97.8712V97.8209H22.8198V97.8712H22.6185ZM21.7128 97.8712V97.8209H22.0147V97.8712H21.7128ZM21.8135 97.9718V97.9215H22.7192V97.9718H21.8135ZM21.9141 98.0724V98.0221H22.6185V98.0724H21.9141ZM23.2121 96.7642V96.7139H23.9166V96.7642H23.2121ZM23.1115 96.8648V96.8145H24.0172V96.8648H23.1115ZM23.1115 96.9655V96.9152H23.3128V96.9655H23.1115ZM23.9166 96.9655V96.9152H24.1178V96.9655H23.9166ZM23.9166 97.0661V97.0158H24.1178V97.0661H23.9166ZM23.0109 97.0661V97.0158H23.2121V97.0661H23.0109ZM23.0109 97.1667V97.1164H23.2121V97.1667H23.0109ZM23.1115 97.2674V97.2171H23.3128V97.2674H23.1115ZM23.1115 97.368V97.3177H23.7153V97.368H23.1115ZM23.3128 97.4686V97.4183H24.0172V97.4686H23.3128ZM23.7153 97.5693V97.519H24.1178V97.5693H23.7153ZM23.9166 97.6699V97.6196H24.1178V97.6699H23.9166ZM23.9166 97.7705V97.7202H24.1178V97.7705H23.9166ZM23.0109 97.7705V97.7202H23.2121V97.7705H23.0109ZM23.9166 97.8712V97.8209H24.1178V97.8712H23.9166ZM23.0109 97.8712V97.8209H23.3128V97.8712H23.0109ZM23.1115 97.9718V97.9215H24.0172V97.9718H23.1115ZM23.2121 98.0724V98.0221H23.9166V98.0724H23.2121ZM24.3089 97.8712V97.8209H24.6108V97.8712H24.3089ZM24.3089 97.9718V97.9215H24.6108V97.9718H24.3089ZM24.3089 98.0724V98.0221H24.6108V98.0724H24.3089ZM25.3058 96.7642V96.7139H25.6077V96.7642H25.3058ZM25.9096 96.7642V96.7139H26.3121V96.7642H25.9096ZM24.9032 96.7642V96.7139H25.1045V96.7642H24.9032ZM25.809 96.8648V96.8145H26.4128V96.8648H25.809ZM25.2051 96.8648V96.8145H25.7083V96.8648H25.2051ZM24.9032 96.8648V96.8145H25.1045V96.8648H24.9032ZM25.507 96.9655V96.9152H25.809V96.9655H25.507ZM26.2115 96.9655V96.9152H26.5134V96.9655H26.2115ZM24.9032 96.9655V96.9152H25.2051V96.9655H24.9032ZM25.6077 97.0661V97.0158H25.809V97.0661H25.6077ZM26.3121 97.0661V97.0158H26.5134V97.0661H26.3121ZM24.9032 97.0661V97.0158H25.1045V97.0661H24.9032ZM25.6077 97.1667V97.1164H25.809V97.1667H25.6077ZM24.9032 97.1667V97.1164H25.1045V97.1667H24.9032ZM26.3121 97.1667V97.1164H26.5134V97.1667H26.3121ZM26.3121 97.2674V97.2171H26.5134V97.2674H26.3121ZM25.6077 97.2674V97.2171H25.809V97.2674H25.6077ZM24.9032 97.2674V97.2171H25.1045V97.2674H24.9032ZM24.9032 97.368V97.3177H25.1045V97.368H24.9032ZM26.3121 97.368V97.3177H26.5134V97.368H26.3121ZM25.6077 97.368V97.3177H25.809V97.368H25.6077ZM24.9032 97.4686V97.4183H25.1045V97.4686H24.9032ZM25.6077 97.4686V97.4183H25.809V97.4686H25.6077ZM26.3121 97.4686V97.4183H26.5134V97.4686H26.3121ZM24.9032 97.5693V97.519H25.1045V97.5693H24.9032ZM25.6077 97.5693V97.519H25.809V97.5693H25.6077ZM26.3121 97.5693V97.519H26.5134V97.5693H26.3121ZM26.3121 97.6699V97.6196H26.5134V97.6699H26.3121ZM25.6077 97.6699V97.6196H25.809V97.6699H25.6077ZM24.9032 97.6699V97.6196H25.1045V97.6699H24.9032ZM24.9032 97.7705V97.7202H25.1045V97.7705H24.9032ZM25.6077 97.7705V97.7202H25.809V97.7705H25.6077ZM26.3121 97.7705V97.7202H26.5134V97.7705H26.3121ZM24.9032 97.8712V97.8209H25.1045V97.8712H24.9032ZM26.3121 97.8712V97.8209H26.5134V97.8712H26.3121ZM25.6077 97.8712V97.8209H25.809V97.8712H25.6077ZM26.3121 97.9718V97.9215H26.5134V97.9718H26.3121ZM25.6077 97.9718V97.9215H25.809V97.9718H25.6077ZM24.9032 97.9718V97.9215H25.1045V97.9718H24.9032ZM26.3121 98.0724V98.0221H26.5134V98.0724H26.3121ZM25.6077 98.0724V98.0221H25.809V98.0724H25.6077ZM24.9032 98.0724V98.0221H25.1045V98.0724H24.9032ZM27.3073 96.7642V96.7139H27.8104V96.7642H27.3073ZM26.9047 96.7642V96.7139H27.106V96.7642H26.9047ZM27.2066 96.8648V96.8145H27.9111V96.8648H27.2066ZM26.9047 96.8648V96.8145H27.106V96.8648H26.9047ZM26.9047 96.9655V96.9152H27.2066V96.9655H26.9047ZM27.7098 96.9655V96.9152H28.0117V96.9655H27.7098ZM27.8104 97.0661V97.0158H28.1123V97.0661H27.8104ZM26.9047 97.0661V97.0158H27.2066V97.0661H26.9047ZM27.9111 97.1667V97.1164H28.1123V97.1667H27.9111ZM26.9047 97.1667V97.1164H27.106V97.1667H26.9047ZM27.9111 97.2674V97.2171H28.1123V97.2674H27.9111ZM26.9047 97.2674V97.2171H27.106V97.2674H26.9047ZM27.9111 97.368V97.3177H28.1123V97.368H27.9111ZM26.9047 97.368V97.3177H27.106V97.368H26.9047ZM27.9111 97.4686V97.4183H28.1123V97.4686H27.9111ZM26.9047 97.4686V97.4183H27.106V97.4686H26.9047ZM27.9111 97.5693V97.519H28.1123V97.5693H27.9111ZM26.9047 97.5693V97.519H27.106V97.5693H26.9047ZM27.9111 97.6699V97.6196H28.1123V97.6699H27.9111ZM26.9047 97.6699V97.6196H27.106V97.6699H26.9047ZM26.9047 97.7705V97.7202H27.2066V97.7705H26.9047ZM27.8104 97.7705V97.7202H28.1123V97.7705H27.8104ZM27.7098 97.8712V97.8209H28.0117V97.8712H27.7098ZM26.9047 97.8712V97.8209H27.2066V97.8712H26.9047ZM27.2066 97.9718V97.9215H27.9111V97.9718H27.2066ZM26.9047 97.9718V97.9215H27.106V97.9718H26.9047ZM27.3073 98.0724V98.0221H27.8104V98.0724H27.3073ZM26.9047 98.0724V98.0221H27.106V98.0724H26.9047ZM26.9047 98.1731V98.1228H27.106V98.1731H26.9047ZM26.9047 98.2737V98.2234H27.106V98.2737H26.9047ZM26.9047 98.3744V98.324H27.106V98.3744H26.9047ZM26.9047 98.475V98.4247H27.106V98.475H26.9047ZM28.7064 96.261V96.2107H29.3102V96.261H28.7064ZM28.5051 96.3617V96.3113H29.4108V96.3617H28.5051ZM29.2095 96.4623V96.412H29.5114V96.4623H29.2095ZM28.5051 96.4623V96.412H28.7064V96.4623H28.5051ZM29.3102 96.5629V96.5126H29.5114V96.5629H29.3102ZM28.4045 96.5629V96.5126H28.6057V96.5629H28.4045ZM28.4045 96.6636V96.6132H28.6057V96.6636H28.4045ZM29.3102 96.6636V96.6132H29.5114V96.6636H29.3102ZM29.3102 96.7642V96.7139H29.5114V96.7642H29.3102ZM29.3102 96.8648V96.8145H29.5114V96.8648H29.3102ZM29.2095 96.9655V96.9152H29.4108V96.9655H29.2095ZM28.807 97.0661V97.0158H29.2095V97.0661H28.807ZM28.807 97.1667V97.1164H29.4108V97.1667H28.807ZM29.2095 97.2674V97.2171H29.5114V97.2674H29.2095ZM29.3102 97.368V97.3177H29.5114V97.368H29.3102ZM29.4108 97.4686V97.4183H29.6121V97.4686H29.4108ZM29.4108 97.5693V97.519H29.6121V97.5693H29.4108ZM29.4108 97.6699V97.6196H29.6121V97.6699H29.4108ZM28.4045 97.6699V97.6196H28.6057V97.6699H28.4045ZM29.4108 97.7705V97.7202H29.6121V97.7705H29.4108ZM28.4045 97.7705V97.7202H28.6057V97.7705H28.4045ZM29.3102 97.8712V97.8209H29.5114V97.8712H29.3102ZM28.4045 97.8712V97.8209H28.7064V97.8712H28.4045ZM28.5051 97.9718V97.9215H29.5114V97.9718H28.5051ZM28.6057 98.0724V98.0221H29.3102V98.0724H28.6057Z" fill="black"/>
</g>
<g filter="url(#filter3_i_5_81)">
<rect x="65.3242" y="70.6931" width="47.2276" height="29.7931" rx="1.76552" fill="#55A0F7"/>
<rect x="65.4345" y="70.8035" width="47.0069" height="29.5724" rx="1.65517" stroke="#55A0F7" stroke-width="0.22069"/>
<path opacity="0.5" d="M67.5928 72.6472V72.5969H68.096V72.6472H67.5928ZM67.3916 72.7478V72.6975H68.2973V72.7478H67.3916ZM68.096 72.8485V72.7981H68.2973V72.8485H68.096ZM67.3916 72.8485V72.7981H67.5928V72.8485H67.3916ZM68.096 72.9491V72.8988H68.3979V72.9491H68.096ZM67.2909 72.9491V72.8988H67.4922V72.9491H67.2909ZM67.9954 73.0497V72.9994H68.3979V73.0497H67.9954ZM67.2909 73.0497V72.9994H67.4922V73.0497H67.2909ZM68.2973 73.1504V73.1001H68.4985V73.1504H68.2973ZM67.1903 73.1504V73.1001H67.3916V73.1504H67.1903ZM67.9954 73.1504V73.1001H68.1966V73.1504H67.9954ZM68.2973 73.251V73.2007H68.4985V73.251H68.2973ZM67.8947 73.251V73.2007H68.096V73.251H67.8947ZM67.1903 73.251V73.2007H67.3916V73.251H67.1903ZM67.1903 73.3516V73.3013H67.3916V73.3516H67.1903ZM68.2973 73.3516V73.3013H68.4985V73.3516H68.2973ZM67.8947 73.3516V73.3013H68.096V73.3516H67.8947ZM67.7941 73.4523V73.402H67.9954V73.4523H67.7941ZM67.1903 73.4523V73.402H67.3916V73.4523H67.1903ZM68.2973 73.4523V73.402H68.4985V73.4523H68.2973ZM67.7941 73.5529V73.5026H67.9954V73.5529H67.7941ZM67.1903 73.5529V73.5026H67.3916V73.5529H67.1903ZM68.2973 73.5529V73.5026H68.4985V73.5529H68.2973ZM68.2973 73.6535V73.6032H68.4985V73.6535H68.2973ZM67.6935 73.6535V73.6032H67.8947V73.6535H67.6935ZM67.1903 73.6535V73.6032H67.3916V73.6535H67.1903ZM67.6935 73.7542V73.7039H67.8947V73.7542H67.6935ZM68.2973 73.7542V73.7039H68.4985V73.7542H68.2973ZM67.1903 73.7542V73.7039H67.3916V73.7542H67.1903ZM67.5928 73.8548V73.8045H67.7941V73.8548H67.5928ZM67.1903 73.8548V73.8045H67.3916V73.8548H67.1903ZM68.2973 73.8548V73.8045H68.4985V73.8548H68.2973ZM67.5928 73.9554V73.9051H67.7941V73.9554H67.5928ZM67.1903 73.9554V73.9051H67.3916V73.9554H67.1903ZM68.2973 73.9554V73.9051H68.4985V73.9554H68.2973ZM67.2909 74.0561V74.0058H67.6935V74.0561H67.2909ZM68.1966 74.0561V74.0058H68.3979V74.0561H68.1966ZM67.2909 74.1567V74.1064H67.6935V74.1567H67.2909ZM68.1966 74.1567V74.1064H68.3979V74.1567H68.1966ZM67.3916 74.2573V74.207H67.5928V74.2573H67.3916ZM68.096 74.2573V74.207H68.2973V74.2573H68.096ZM67.3916 74.358V74.3077H68.2973V74.358H67.3916ZM67.5928 74.4586V74.4083H68.096V74.4586H67.5928ZM69.1932 72.6472V72.5969H69.3945V72.6472H69.1932ZM69.1932 72.7478V72.6975H69.3945V72.7478H69.1932ZM69.1932 72.8485V72.7981H69.3945V72.8485H69.1932ZM68.7907 72.9491V72.8988H69.3945V72.9491H68.7907ZM68.7907 73.0497V72.9994H69.3945V73.0497H68.7907ZM69.1932 73.1504V73.1001H69.3945V73.1504H69.1932ZM69.1932 73.251V73.2007H69.3945V73.251H69.1932ZM69.1932 73.3516V73.3013H69.3945V73.3516H69.1932ZM69.1932 73.4523V73.402H69.3945V73.4523H69.1932ZM69.1932 73.5529V73.5026H69.3945V73.5529H69.1932ZM69.1932 73.6535V73.6032H69.3945V73.6535H69.1932ZM69.1932 73.7542V73.7039H69.3945V73.7542H69.1932ZM69.1932 73.8548V73.8045H69.3945V73.8548H69.1932ZM69.1932 73.9554V73.9051H69.3945V73.9554H69.1932ZM69.1932 74.0561V74.0058H69.3945V74.0561H69.1932ZM69.1932 74.1567V74.1064H69.3945V74.1567H69.1932ZM69.1932 74.2573V74.207H69.3945V74.2573H69.1932ZM68.7907 74.358V74.3077H69.6964V74.358H68.7907ZM68.7907 74.4586V74.4083H69.6964V74.4586H68.7907Z" fill="black"/>
<path d="M67.5928 96.7642V96.7139H68.096V96.7642H67.5928ZM68.2973 96.7642V96.7139H68.4985V96.7642H68.2973ZM67.4922 96.8648V96.8145H68.1966V96.8648H67.4922ZM68.2973 96.8648V96.8145H68.4985V96.8648H68.2973ZM67.3916 96.9655V96.9152H67.6935V96.9655H67.3916ZM68.1966 96.9655V96.9152H68.4985V96.9655H68.1966ZM68.1966 97.0661V97.0158H68.4985V97.0661H68.1966ZM67.2909 97.0661V97.0158H67.5928V97.0661H67.2909ZM67.2909 97.1667V97.1164H67.4922V97.1667H67.2909ZM68.2973 97.1667V97.1164H68.4985V97.1667H68.2973ZM67.2909 97.2674V97.2171H67.4922V97.2674H67.2909ZM68.2973 97.2674V97.2171H68.4985V97.2674H68.2973ZM67.2909 97.368V97.3177H67.4922V97.368H67.2909ZM68.2973 97.368V97.3177H68.4985V97.368H68.2973ZM68.2973 97.4686V97.4183H68.4985V97.4686H68.2973ZM67.2909 97.4686V97.4183H67.4922V97.4686H67.2909ZM67.2909 97.5693V97.519H67.4922V97.5693H67.2909ZM68.2973 97.5693V97.519H68.4985V97.5693H68.2973ZM68.1966 97.6699V97.6196H68.4985V97.6699H68.1966ZM67.2909 97.6699V97.6196H67.5928V97.6699H67.2909ZM67.3916 97.7705V97.7202H67.6935V97.7705H67.3916ZM68.1966 97.7705V97.7202H68.4985V97.7705H68.1966ZM68.2973 97.8712V97.8209H68.4985V97.8712H68.2973ZM67.4922 97.8712V97.8209H68.1966V97.8712H67.4922ZM67.5928 97.9718V97.9215H68.096V97.9718H67.5928ZM68.2973 97.9718V97.9215H68.4985V97.9718H68.2973ZM68.2973 98.0724V98.0221H68.4985V98.0724H68.2973ZM67.2909 98.1731V98.1228H67.4922V98.1731H67.2909ZM68.2973 98.1731V98.1228H68.4985V98.1731H68.2973ZM67.2909 98.2737V98.2234H67.5928V98.2737H67.2909ZM68.1966 98.2737V98.2234H68.4985V98.2737H68.1966ZM67.3916 98.3744V98.324H68.3979V98.3744H67.3916ZM67.5928 98.475V98.4247H68.1966V98.475H67.5928ZM68.8915 96.7642V96.7139H69.0928V96.7642H68.8915ZM69.6966 96.7642V96.7139H69.8979V96.7642H69.6966ZM68.8915 96.8648V96.8145H69.0928V96.8648H68.8915ZM69.6966 96.8648V96.8145H69.8979V96.8648H69.6966ZM68.8915 96.9655V96.9152H69.0928V96.9655H68.8915ZM69.6966 96.9655V96.9152H69.8979V96.9655H69.6966ZM69.6966 97.0661V97.0158H69.8979V97.0661H69.6966ZM68.8915 97.0661V97.0158H69.0928V97.0661H68.8915ZM69.6966 97.1667V97.1164H69.8979V97.1667H69.6966ZM68.8915 97.1667V97.1164H69.0928V97.1667H68.8915ZM68.8915 97.2674V97.2171H69.0928V97.2674H68.8915ZM69.6966 97.2674V97.2171H69.8979V97.2674H69.6966ZM68.8915 97.368V97.3177H69.0928V97.368H68.8915ZM69.6966 97.368V97.3177H69.8979V97.368H69.6966ZM69.6966 97.4686V97.4183H69.8979V97.4686H69.6966ZM68.8915 97.4686V97.4183H69.0928V97.4686H68.8915ZM68.8915 97.5693V97.519H69.0928V97.5693H68.8915ZM69.6966 97.5693V97.519H69.8979V97.5693H69.6966ZM68.8915 97.6699V97.6196H69.0928V97.6699H68.8915ZM69.6966 97.6699V97.6196H69.8979V97.6699H69.6966ZM69.6966 97.7705V97.7202H69.8979V97.7705H69.6966ZM68.8915 97.7705V97.7202H69.0928V97.7705H68.8915ZM69.596 97.8712V97.8209H69.8979V97.8712H69.596ZM68.8915 97.8712V97.8209H69.1934V97.8712H68.8915ZM69.6966 97.9718V97.9215H69.8979V97.9718H69.6966ZM68.9922 97.9718V97.9215H69.596V97.9718H68.9922ZM69.0928 98.0724V98.0221H69.4954V98.0724H69.0928ZM69.6966 98.0724V98.0221H69.8979V98.0724H69.6966ZM71.1961 96.7642V96.7139H71.3974V96.7642H71.1961ZM70.1898 96.7642V96.7139H70.3911V96.7642H70.1898ZM70.1898 96.8648V96.8145H70.3911V96.8648H70.1898ZM71.1961 96.8648V96.8145H71.3974V96.8648H71.1961ZM70.1898 96.9655V96.9152H70.3911V96.9655H70.1898ZM71.1961 96.9655V96.9152H71.3974V96.9655H71.1961ZM71.0955 97.0661V97.0158H71.2968V97.0661H71.0955ZM70.2904 97.0661V97.0158H70.4917V97.0661H70.2904ZM71.0955 97.1667V97.1164H71.2968V97.1667H71.0955ZM70.2904 97.1667V97.1164H70.4917V97.1667H70.2904ZM70.2904 97.2674V97.2171H70.4917V97.2674H70.2904ZM71.0955 97.2674V97.2171H71.2968V97.2674H71.0955ZM70.3911 97.368V97.3177H70.5923V97.368H70.3911ZM70.9949 97.368V97.3177H71.1961V97.368H70.9949ZM70.3911 97.4686V97.4183H70.5923V97.4686H70.3911ZM70.9949 97.4686V97.4183H71.1961V97.4686H70.9949ZM70.3911 97.5693V97.519H70.5923V97.5693H70.3911ZM70.9949 97.5693V97.519H71.1961V97.5693H70.9949ZM70.8942 97.6699V97.6196H71.0955V97.6699H70.8942ZM70.4917 97.6699V97.6196H70.693V97.6699H70.4917ZM70.4917 97.7705V97.7202H70.693V97.7705H70.4917ZM70.8942 97.7705V97.7202H71.0955V97.7705H70.8942ZM70.4917 97.8712V97.8209H70.693V97.8712H70.4917ZM70.8942 97.8712V97.8209H71.0955V97.8712H70.8942ZM70.5923 97.9718V97.9215H70.9949V97.9718H70.5923ZM70.5923 98.0724V98.0221H70.9949V98.0724H70.5923ZM70.693 98.1731V98.1228H70.8942V98.1731H70.693ZM70.693 98.2737V98.2234H70.8942V98.2737H70.693ZM70.2904 98.3744V98.324H70.7936V98.3744H70.2904ZM70.2904 98.475V98.4247H70.693V98.475H70.2904ZM71.79 96.7642V96.7139H72.4944V96.7642H71.79ZM71.6893 96.8648V96.8145H72.595V96.8648H71.6893ZM71.6893 96.9655V96.9152H71.8906V96.9655H71.6893ZM72.4944 96.9655V96.9152H72.6957V96.9655H72.4944ZM72.4944 97.0661V97.0158H72.6957V97.0661H72.4944ZM71.5887 97.0661V97.0158H71.79V97.0661H71.5887ZM71.5887 97.1667V97.1164H71.79V97.1667H71.5887ZM71.6893 97.2674V97.2171H71.8906V97.2674H71.6893ZM71.6893 97.368V97.3177H72.2931V97.368H71.6893ZM71.8906 97.4686V97.4183H72.595V97.4686H71.8906ZM72.2931 97.5693V97.519H72.6957V97.5693H72.2931ZM72.4944 97.6699V97.6196H72.6957V97.6699H72.4944ZM72.4944 97.7705V97.7202H72.6957V97.7705H72.4944ZM71.5887 97.7705V97.7202H71.79V97.7705H71.5887ZM72.4944 97.8712V97.8209H72.6957V97.8712H72.4944ZM71.5887 97.8712V97.8209H71.8906V97.8712H71.5887ZM71.6893 97.9718V97.9215H72.595V97.9718H71.6893ZM71.79 98.0724V98.0221H72.4944V98.0724H71.79ZM73.088 96.7642V96.7139H73.7924V96.7642H73.088ZM72.9874 96.8648V96.8145H73.8931V96.8648H72.9874ZM72.9874 96.9655V96.9152H73.1886V96.9655H72.9874ZM73.7924 96.9655V96.9152H73.9937V96.9655H73.7924ZM73.7924 97.0661V97.0158H73.9937V97.0661H73.7924ZM72.8867 97.0661V97.0158H73.088V97.0661H72.8867ZM72.8867 97.1667V97.1164H73.088V97.1667H72.8867ZM72.9874 97.2674V97.2171H73.1886V97.2674H72.9874ZM72.9874 97.368V97.3177H73.5912V97.368H72.9874ZM73.1886 97.4686V97.4183H73.8931V97.4686H73.1886ZM73.5912 97.5693V97.519H73.9937V97.5693H73.5912ZM73.7924 97.6699V97.6196H73.9937V97.6699H73.7924ZM73.7924 97.7705V97.7202H73.9937V97.7705H73.7924ZM72.8867 97.7705V97.7202H73.088V97.7705H72.8867ZM73.7924 97.8712V97.8209H73.9937V97.8712H73.7924ZM72.8867 97.8712V97.8209H73.1886V97.8712H72.8867ZM72.9874 97.9718V97.9215H73.8931V97.9718H72.9874ZM73.088 98.0724V98.0221H73.7924V98.0724H73.088ZM74.1847 97.8712V97.8209H74.4866V97.8712H74.1847ZM74.1847 97.9718V97.9215H74.4866V97.9718H74.1847ZM74.1847 98.0724V98.0221H74.4866V98.0724H74.1847ZM75.1816 96.7642V96.7139H75.4835V96.7642H75.1816ZM75.7854 96.7642V96.7139H76.188V96.7642H75.7854ZM74.7791 96.7642V96.7139H74.9804V96.7642H74.7791ZM75.6848 96.8648V96.8145H76.2886V96.8648H75.6848ZM75.081 96.8648V96.8145H75.5842V96.8648H75.081ZM74.7791 96.8648V96.8145H74.9804V96.8648H74.7791ZM75.3829 96.9655V96.9152H75.6848V96.9655H75.3829ZM76.0873 96.9655V96.9152H76.3892V96.9655H76.0873ZM74.7791 96.9655V96.9152H75.081V96.9655H74.7791ZM75.4835 97.0661V97.0158H75.6848V97.0661H75.4835ZM76.188 97.0661V97.0158H76.3892V97.0661H76.188ZM74.7791 97.0661V97.0158H74.9804V97.0661H74.7791ZM75.4835 97.1667V97.1164H75.6848V97.1667H75.4835ZM74.7791 97.1667V97.1164H74.9804V97.1667H74.7791ZM76.188 97.1667V97.1164H76.3892V97.1667H76.188ZM76.188 97.2674V97.2171H76.3892V97.2674H76.188ZM75.4835 97.2674V97.2171H75.6848V97.2674H75.4835ZM74.7791 97.2674V97.2171H74.9804V97.2674H74.7791ZM74.7791 97.368V97.3177H74.9804V97.368H74.7791ZM76.188 97.368V97.3177H76.3892V97.368H76.188ZM75.4835 97.368V97.3177H75.6848V97.368H75.4835ZM74.7791 97.4686V97.4183H74.9804V97.4686H74.7791ZM75.4835 97.4686V97.4183H75.6848V97.4686H75.4835ZM76.188 97.4686V97.4183H76.3892V97.4686H76.188ZM74.7791 97.5693V97.519H74.9804V97.5693H74.7791ZM75.4835 97.5693V97.519H75.6848V97.5693H75.4835ZM76.188 97.5693V97.519H76.3892V97.5693H76.188ZM76.188 97.6699V97.6196H76.3892V97.6699H76.188ZM75.4835 97.6699V97.6196H75.6848V97.6699H75.4835ZM74.7791 97.6699V97.6196H74.9804V97.6699H74.7791ZM74.7791 97.7705V97.7202H74.9804V97.7705H74.7791ZM75.4835 97.7705V97.7202H75.6848V97.7705H75.4835ZM76.188 97.7705V97.7202H76.3892V97.7705H76.188ZM74.7791 97.8712V97.8209H74.9804V97.8712H74.7791ZM76.188 97.8712V97.8209H76.3892V97.8712H76.188ZM75.4835 97.8712V97.8209H75.6848V97.8712H75.4835ZM76.188 97.9718V97.9215H76.3892V97.9718H76.188ZM75.4835 97.9718V97.9215H75.6848V97.9718H75.4835ZM74.7791 97.9718V97.9215H74.9804V97.9718H74.7791ZM76.188 98.0724V98.0221H76.3892V98.0724H76.188ZM75.4835 98.0724V98.0221H75.6848V98.0724H75.4835ZM74.7791 98.0724V98.0221H74.9804V98.0724H74.7791ZM77.1831 96.7642V96.7139H77.6863V96.7642H77.1831ZM76.7806 96.7642V96.7139H76.9818V96.7642H76.7806ZM77.0825 96.8648V96.8145H77.7869V96.8648H77.0825ZM76.7806 96.8648V96.8145H76.9818V96.8648H76.7806ZM76.7806 96.9655V96.9152H77.0825V96.9655H76.7806ZM77.5856 96.9655V96.9152H77.8876V96.9655H77.5856ZM77.6863 97.0661V97.0158H77.9882V97.0661H77.6863ZM76.7806 97.0661V97.0158H77.0825V97.0661H76.7806ZM77.7869 97.1667V97.1164H77.9882V97.1667H77.7869ZM76.7806 97.1667V97.1164H76.9818V97.1667H76.7806ZM77.7869 97.2674V97.2171H77.9882V97.2674H77.7869ZM76.7806 97.2674V97.2171H76.9818V97.2674H76.7806ZM77.7869 97.368V97.3177H77.9882V97.368H77.7869ZM76.7806 97.368V97.3177H76.9818V97.368H76.7806ZM77.7869 97.4686V97.4183H77.9882V97.4686H77.7869ZM76.7806 97.4686V97.4183H76.9818V97.4686H76.7806ZM77.7869 97.5693V97.519H77.9882V97.5693H77.7869ZM76.7806 97.5693V97.519H76.9818V97.5693H76.7806ZM77.7869 97.6699V97.6196H77.9882V97.6699H77.7869ZM76.7806 97.6699V97.6196H76.9818V97.6699H76.7806ZM76.7806 97.7705V97.7202H77.0825V97.7705H76.7806ZM77.6863 97.7705V97.7202H77.9882V97.7705H77.6863ZM77.5856 97.8712V97.8209H77.8876V97.8712H77.5856ZM76.7806 97.8712V97.8209H77.0825V97.8712H76.7806ZM77.0825 97.9718V97.9215H77.7869V97.9718H77.0825ZM76.7806 97.9718V97.9215H76.9818V97.9718H76.7806ZM77.1831 98.0724V98.0221H77.6863V98.0724H77.1831ZM76.7806 98.0724V98.0221H76.9818V98.0724H76.7806ZM76.7806 98.1731V98.1228H76.9818V98.1731H76.7806ZM76.7806 98.2737V98.2234H76.9818V98.2737H76.7806ZM76.7806 98.3744V98.324H76.9818V98.3744H76.7806ZM76.7806 98.475V98.4247H76.9818V98.475H76.7806ZM78.5822 96.261V96.2107H79.186V96.261H78.5822ZM78.381 96.3617V96.3113H79.2867V96.3617H78.381ZM79.0854 96.4623V96.412H79.3873V96.4623H79.0854ZM78.381 96.4623V96.412H78.5822V96.4623H78.381ZM79.186 96.5629V96.5126H79.3873V96.5629H79.186ZM78.2803 96.5629V96.5126H78.4816V96.5629H78.2803ZM78.2803 96.6636V96.6132H78.4816V96.6636H78.2803ZM79.186 96.6636V96.6132H79.3873V96.6636H79.186ZM79.186 96.7642V96.7139H79.3873V96.7642H79.186ZM79.186 96.8648V96.8145H79.3873V96.8648H79.186ZM79.0854 96.9655V96.9152H79.2867V96.9655H79.0854ZM78.6829 97.0661V97.0158H79.0854V97.0661H78.6829ZM78.6829 97.1667V97.1164H79.2867V97.1667H78.6829ZM79.0854 97.2674V97.2171H79.3873V97.2674H79.0854ZM79.186 97.368V97.3177H79.3873V97.368H79.186ZM79.2867 97.4686V97.4183H79.4879V97.4686H79.2867ZM79.2867 97.5693V97.519H79.4879V97.5693H79.2867ZM79.2867 97.6699V97.6196H79.4879V97.6699H79.2867ZM78.2803 97.6699V97.6196H78.4816V97.6699H78.2803ZM79.2867 97.7705V97.7202H79.4879V97.7705H79.2867ZM78.2803 97.7705V97.7202H78.4816V97.7705H78.2803ZM79.186 97.8712V97.8209H79.3873V97.8712H79.186ZM78.2803 97.8712V97.8209H78.5822V97.8712H78.2803ZM78.381 97.9718V97.9215H79.3873V97.9718H78.381ZM78.4816 98.0724V98.0221H79.186V98.0724H78.4816Z" fill="black"/>
</g>
<defs>
<filter id="filter0_i_5_81" x="15.4483" y="38.2517" width="47.2276" height="29.7931" filterUnits="userSpaceOnUse" color-interpolation-filters="sRGB">
<feFlood flood-opacity="0" result="BackgroundImageFix"/>
<feBlend mode="normal" in="SourceGraphic" in2="BackgroundImageFix" result="shape"/>
<feColorMatrix in="SourceAlpha" type="matrix" values="0 0 0 0 0 0 0 0 0 0 0 0 0 0 0 0 0 0 127 0" result="hardAlpha"/>
<feMorphology radius="4.41379" operator="erode" in="SourceAlpha" result="effect1_innerShadow_5_81"/>
<feOffset/>
<feGaussianBlur stdDeviation="5.51724"/>
<feComposite in2="hardAlpha" operator="arithmetic" k2="-1" k3="1"/>
<feColorMatrix type="matrix" values="0 0 0 0 1 0 0 0 0 1 0 0 0 0 1 0 0 0 0.2 0"/>
<feBlend mode="normal" in2="shape" result="effect1_innerShadow_5_81"/>
</filter>
<filter id="filter1_i_5_81" x="65.3242" y="38.2517" width="47.2276" height="29.7931" filterUnits="userSpaceOnUse" color-interpolation-filters="sRGB">
<feFlood flood-opacity="0" result="BackgroundImageFix"/>
<feBlend mode="normal" in="SourceGraphic" in2="BackgroundImageFix" result="shape"/>
<feColorMatrix in="SourceAlpha" type="matrix" values="0 0 0 0 0 0 0 0 0 0 0 0 0 0 0 0 0 0 127 0" result="hardAlpha"/>
<feMorphology radius="4.41379" operator="erode" in="SourceAlpha" result="effect1_innerShadow_5_81"/>
<feOffset/>
<feGaussianBlur stdDeviation="5.51724"/>
<feComposite in2="hardAlpha" operator="arithmetic" k2="-1" k3="1"/>
<feColorMatrix type="matrix" values="0 0 0 0 1 0 0 0 0 1 0 0 0 0 1 0 0 0 0.2 0"/>
<feBlend mode="normal" in2="shape" result="effect1_innerShadow_5_81"/>
</filter>
<filter id="filter2_i_5_81" x="15.4483" y="70.6931" width="47.2276" height="29.7931" filterUnits="userSpaceOnUse" color-interpolation-filters="sRGB">
<feFlood flood-opacity="0" result="BackgroundImageFix"/>
<feBlend mode="normal" in="SourceGraphic" in2="BackgroundImageFix" result="shape"/>
<feColorMatrix in="SourceAlpha" type="matrix" values="0 0 0 0 0 0 0 0 0 0 0 0 0 0 0 0 0 0 127 0" result="hardAlpha"/>
<feMorphology radius="4.41379" operator="erode" in="SourceAlpha" result="effect1_innerShadow_5_81"/>
<feOffset/>
<feGaussianBlur stdDeviation="5.51724"/>
<feComposite in2="hardAlpha" operator="arithmetic" k2="-1" k3="1"/>
<feColorMatrix type="matrix" values="0 0 0 0 0.776471 0 0 0 0 0.631373 0 0 0 0 0.466667 0 0 0 0.4 0"/>
<feBlend mode="normal" in2="shape" result="effect1_innerShadow_5_81"/>
</filter>
<filter id="filter3_i_5_81" x="65.3242" y="70.6931" width="47.2276" height="29.7931" filterUnits="userSpaceOnUse" color-interpolation-filters="sRGB">
<feFlood flood-opacity="0" result="BackgroundImageFix"/>
<feBlend mode="normal" in="SourceGraphic" in2="BackgroundImageFix" result="shape"/>
<feColorMatrix in="SourceAlpha" type="matrix" values="0 0 0 0 0 0 0 0 0 0 0 0 0 0 0 0 0 0 127 0" result="hardAlpha"/>
<feMorphology radius="4.41379" operator="erode" in="SourceAlpha" result="effect1_innerShadow_5_81"/>
<feOffset/>
<feGaussianBlur stdDeviation="5.51724"/>
<feComposite in2="hardAlpha" operator="arithmetic" k2="-1" k3="1"/>
<feColorMatrix type="matrix" values="0 0 0 0 1 0 0 0 0 1 0 0 0 0 1 0 0 0 0.2 0"/>
<feBlend mode="normal" in2="shape" result="effect1_innerShadow_5_81"/>
</filter>
</defs>
</svg>
